<svg width="20" height="20" viewBox="0 0 20 20" fill="none" xmlns="http://www.w3.org/2000/svg">
<path d="M10.5453 12.5H9.53253C9.56272 12.2782 9.61191 12.0852 9.6715 11.9164L9.67157 11.9164L9.67434 11.9081C9.67958 11.8924 9.68378 11.878 9.68717 11.8654C9.68935 11.8614 9.6916 11.8572 9.69385 11.8529C9.70435 11.8329 9.7169 11.8066 9.72852 11.7748C9.78487 11.6313 9.85929 11.4897 9.93875 11.3572L9.948 11.3418C9.95459 11.3317 9.96455 11.3159 9.97529 11.2963C9.97592 11.2953 9.97655 11.2942 9.97718 11.2932C9.98036 11.2879 9.98352 11.2824 9.98664 11.2767C10.2745 10.8556 10.6452 10.5695 11.0573 10.2514C11.1562 10.1751 11.2576 10.0968 11.3607 10.0145C11.874 9.60461 12.4312 9.08103 12.4985 8.18915C12.5982 6.96703 11.7275 5.81298 10.5344 5.56103C9.24424 5.28545 8.05991 6.0505 7.66028 7.15864C7.57439 7.39024 7.40223 7.5 7.25 7.5H7.05C6.77137 7.5 6.57903 7.23116 6.65753 6.9782L6.65862 6.97464C7.13943 5.38359 8.73074 4.27207 10.537 4.53464C12.0431 4.76013 13.2531 6.04416 13.4647 7.57832L13.4649 7.57999C13.5794 8.39006 13.3668 8.91989 13.0292 9.36117C12.8516 9.59317 12.6346 9.80637 12.3896 10.0266C12.306 10.1018 12.2143 10.1819 12.1197 10.2645C11.9556 10.4078 11.7828 10.5587 11.629 10.7043C11.5029 10.8201 11.3791 10.9431 11.263 11.0814C11.2579 11.0871 11.2535 11.0924 11.2497 11.097C11.2407 11.108 11.2334 11.1177 11.2281 11.125C11.224 11.1307 11.2204 11.1358 11.2176 11.1399C11.115 11.2636 10.9999 11.4123 10.9024 11.5806C10.8806 11.6155 10.8653 11.6463 10.8591 11.6588C10.8586 11.6598 10.8582 11.6606 10.8578 11.6614C10.8574 11.6622 10.857 11.6629 10.8567 11.6636L10.8539 11.6677L10.845 11.6835C10.7075 11.9261 10.6017 12.197 10.5453 12.5ZM11.208 11.1542L11.208 11.1541L11.208 11.1542ZM9.89856 11.3935L9.89936 11.3927L9.89856 11.3935ZM0.5 10C0.5 4.75614 4.75614 0.5 10 0.5C15.2439 0.5 19.5 4.75614 19.5 10C19.5 15.2439 15.2439 19.5 10 19.5C4.75614 19.5 0.5 15.2439 0.5 10ZM1.5 10C1.5 14.6861 5.31386 18.5 10 18.5C14.6861 18.5 18.5 14.6861 18.5 10C18.5 5.31386 14.6861 1.5 10 1.5C5.31386 1.5 1.5 5.31386 1.5 10ZM10.5 14.5V15.5H9.5V14.5H10.5Z" fill="url(#paint0_radial_94_635)" stroke="#D73231"/>
<defs>
<radialGradient id="paint0_radial_94_635" cx="0" cy="0" r="1" gradientUnits="userSpaceOnUse" gradientTransform="translate(9.11112) rotate(87.4552) scale(20.0197)">
<stop stop-color="#D73231"/>
<stop offset="1" stop-color="#792625"/>
</radialGradient>
</defs>
</svg>
