<svg width="64" height="64" viewBox="0 0 64 64" fill="none" xmlns="http://www.w3.org/2000/svg">
<g filter="url(#filter0_i_1137_402)">
<path d="M56.4135 52.6428C61.311 46.8797 64 39.563 64 32C64 24.437 61.311 17.1203 56.4135 11.3572L58.7068 9.06388C59.2068 8.5635 59.4876 7.88498 59.4874 7.17759C59.4871 6.4702 59.2058 5.79188 58.7055 5.29186C58.2051 4.79184 57.5266 4.51106 56.8192 4.51131C56.1118 4.51156 55.4335 4.79281 54.9335 5.29319L52.6401 7.58654C46.877 2.68898 39.5604 0 31.9973 0C24.4343 0 17.1177 2.68898 11.3546 7.58654L9.06121 5.29319C8.55793 4.80778 7.88412 4.53946 7.18493 4.54602C6.48573 4.55259 5.81708 4.83351 5.32301 5.32829C4.82893 5.82307 4.54895 6.49211 4.54337 7.19132C4.53779 7.89053 4.80707 8.56395 5.29319 9.06655L7.58654 11.3599C2.68898 17.123 0 24.4396 0 32.0027C0 39.5657 2.68898 46.8823 7.58654 52.6454L5.29319 54.9388C5.03868 55.185 4.83574 55.4794 4.69621 55.8048C4.55669 56.1302 4.48338 56.4802 4.48055 56.8343C4.47773 57.1884 4.54545 57.5395 4.67977 57.8671C4.81408 58.1947 5.0123 58.4923 5.26286 58.7425C5.51341 58.9927 5.81129 59.1905 6.13911 59.3244C6.46692 59.4582 6.81811 59.5254 7.17219 59.5221C7.52626 59.5188 7.87613 59.445 8.20138 59.305C8.52662 59.165 8.82073 58.9617 9.06655 58.7068L11.3599 56.4135C17.123 61.311 24.4396 64 32.0027 64C39.5657 64 46.8823 61.311 52.6454 56.4135L54.9388 58.7068C55.4421 59.1922 56.1159 59.4605 56.8151 59.454C57.5143 59.4474 58.1829 59.1665 58.677 58.6717C59.1711 58.1769 59.451 57.5079 59.4566 56.8087C59.4622 56.1095 59.1929 55.436 58.7068 54.9335L56.4135 52.6428ZM58.6668 32C58.6717 38.1506 56.5395 44.1119 52.6348 48.8641L43.1121 39.3414C44.5604 37.1669 45.3333 34.6127 45.3333 32C45.3333 29.3873 44.5604 26.8331 43.1121 24.6586L52.6348 15.1359C56.5395 19.8881 58.6717 25.8494 58.6668 32V32ZM24 32C24 30.4177 24.4692 28.871 25.3482 27.5554C26.2273 26.2398 27.4767 25.2144 28.9385 24.6089C30.4003 24.0034 32.0089 23.845 33.5607 24.1537C35.1126 24.4624 36.5381 25.2243 37.6569 26.3431C38.7757 27.4619 39.5376 28.8874 39.8463 30.4393C40.155 31.9911 39.9966 33.5997 39.3911 35.0615C38.7856 36.5233 37.7602 37.7727 36.4446 38.6518C35.129 39.5308 33.5823 40 32 40C29.8783 40 27.8434 39.1572 26.3431 37.6569C24.8428 36.1566 24 34.1217 24 32ZM32 5.33319C38.1506 5.32829 44.1119 7.46054 48.8641 11.3652L39.3414 20.8879C37.1669 19.4396 34.6127 18.6667 32 18.6667C29.3873 18.6667 26.8331 19.4396 24.6586 20.8879L15.1359 11.3652C19.8881 7.46054 25.8494 5.32829 32 5.33319V5.33319ZM5.33319 32C5.32829 25.8494 7.46054 19.8881 11.3652 15.1359L20.8879 24.6586C19.4396 26.8331 18.6667 29.3873 18.6667 32C18.6667 34.6127 19.4396 37.1669 20.8879 39.3414L11.3652 48.8641C7.46054 44.1119 5.32829 38.1506 5.33319 32V32ZM32 58.6668C25.8494 58.6717 19.8881 56.5395 15.1359 52.6348L24.6586 43.1121C26.8331 44.5604 29.3873 45.3333 32 45.3333C34.6127 45.3333 37.1669 44.5604 39.3414 43.1121L48.8641 52.6348C44.1119 56.5395 38.1506 58.6717 32 58.6668V58.6668Z" fill="white" fill-opacity="0.5"/>
<path d="M56.4135 52.6428C61.311 46.8797 64 39.563 64 32C64 24.437 61.311 17.1203 56.4135 11.3572L58.7068 9.06388C59.2068 8.5635 59.4876 7.88498 59.4874 7.17759C59.4871 6.4702 59.2058 5.79188 58.7055 5.29186C58.2051 4.79184 57.5266 4.51106 56.8192 4.51131C56.1118 4.51156 55.4335 4.79281 54.9335 5.29319L52.6401 7.58654C46.877 2.68898 39.5604 0 31.9973 0C24.4343 0 17.1177 2.68898 11.3546 7.58654L9.06121 5.29319C8.55793 4.80778 7.88412 4.53946 7.18493 4.54602C6.48573 4.55259 5.81708 4.83351 5.32301 5.32829C4.82893 5.82307 4.54895 6.49211 4.54337 7.19132C4.53779 7.89053 4.80707 8.56395 5.29319 9.06655L7.58654 11.3599C2.68898 17.123 0 24.4396 0 32.0027C0 39.5657 2.68898 46.8823 7.58654 52.6454L5.29319 54.9388C5.03868 55.185 4.83574 55.4794 4.69621 55.8048C4.55669 56.1302 4.48338 56.4802 4.48055 56.8343C4.47773 57.1884 4.54545 57.5395 4.67977 57.8671C4.81408 58.1947 5.0123 58.4923 5.26286 58.7425C5.51341 58.9927 5.81129 59.1905 6.13911 59.3244C6.46692 59.4582 6.81811 59.5254 7.17219 59.5221C7.52626 59.5188 7.87613 59.445 8.20138 59.305C8.52662 59.165 8.82073 58.9617 9.06655 58.7068L11.3599 56.4135C17.123 61.311 24.4396 64 32.0027 64C39.5657 64 46.8823 61.311 52.6454 56.4135L54.9388 58.7068C55.4421 59.1922 56.1159 59.4605 56.8151 59.454C57.5143 59.4474 58.1829 59.1665 58.677 58.6717C59.1711 58.1769 59.451 57.5079 59.4566 56.8087C59.4622 56.1095 59.1929 55.436 58.7068 54.9335L56.4135 52.6428ZM58.6668 32C58.6717 38.1506 56.5395 44.1119 52.6348 48.8641L43.1121 39.3414C44.5604 37.1669 45.3333 34.6127 45.3333 32C45.3333 29.3873 44.5604 26.8331 43.1121 24.6586L52.6348 15.1359C56.5395 19.8881 58.6717 25.8494 58.6668 32V32ZM24 32C24 30.4177 24.4692 28.871 25.3482 27.5554C26.2273 26.2398 27.4767 25.2144 28.9385 24.6089C30.4003 24.0034 32.0089 23.845 33.5607 24.1537C35.1126 24.4624 36.5381 25.2243 37.6569 26.3431C38.7757 27.4619 39.5376 28.8874 39.8463 30.4393C40.155 31.9911 39.9966 33.5997 39.3911 35.0615C38.7856 36.5233 37.7602 37.7727 36.4446 38.6518C35.129 39.5308 33.5823 40 32 40C29.8783 40 27.8434 39.1572 26.3431 37.6569C24.8428 36.1566 24 34.1217 24 32ZM32 5.33319C38.1506 5.32829 44.1119 7.46054 48.8641 11.3652L39.3414 20.8879C37.1669 19.4396 34.6127 18.6667 32 18.6667C29.3873 18.6667 26.8331 19.4396 24.6586 20.8879L15.1359 11.3652C19.8881 7.46054 25.8494 5.32829 32 5.33319V5.33319ZM5.33319 32C5.32829 25.8494 7.46054 19.8881 11.3652 15.1359L20.8879 24.6586C19.4396 26.8331 18.6667 29.3873 18.6667 32C18.6667 34.6127 19.4396 37.1669 20.8879 39.3414L11.3652 48.8641C7.46054 44.1119 5.32829 38.1506 5.33319 32V32ZM32 58.6668C25.8494 58.6717 19.8881 56.5395 15.1359 52.6348L24.6586 43.1121C26.8331 44.5604 29.3873 45.3333 32 45.3333C34.6127 45.3333 37.1669 44.5604 39.3414 43.1121L48.8641 52.6348C44.1119 56.5395 38.1506 58.6717 32 58.6668V58.6668Z" fill="url(#paint0_linear_1137_402)"/>
</g>
<defs>
<filter id="filter0_i_1137_402" x="0" y="-1" width="64" height="65" filterUnits="userSpaceOnUse" color-interpolation-filters="sRGB">
<feFlood flood-opacity="0" result="BackgroundImageFix"/>
<feBlend mode="normal" in="SourceGraphic" in2="BackgroundImageFix" result="shape"/>
<feColorMatrix in="SourceAlpha" type="matrix" values="0 0 0 0 0 0 0 0 0 0 0 0 0 0 0 0 0 0 127 0" result="hardAlpha"/>
<feOffset dy="-1"/>
<feGaussianBlur stdDeviation="1"/>
<feComposite in2="hardAlpha" operator="arithmetic" k2="-1" k3="1"/>
<feColorMatrix type="matrix" values="0 0 0 0 1 0 0 0 0 0 0 0 0 0 0 0 0 0 0.75 0"/>
<feBlend mode="color-dodge" in2="shape" result="effect1_innerShadow_1137_402"/>
</filter>
<linearGradient id="paint0_linear_1137_402" x1="64.3998" y1="-12.9991" x2="64.3998" y2="79.9994" gradientUnits="userSpaceOnUse">
<stop stop-color="#CE4242"/>
<stop offset="1" stop-color="#527FE1"/>
</linearGradient>
</defs>
</svg>
