<svg width="64" height="72" viewBox="0 0 64 72" fill="none" xmlns="http://www.w3.org/2000/svg">
<g filter="url(#filter0_d_86_506)">
<g filter="url(#filter1_i_86_506)">
<path d="M49.5493 5.70664L32.8427 0.135971C32.2957 -0.0462188 31.7044 -0.0462188 31.1573 0.135971L14.4507 5.70664C11.7944 6.58899 9.48379 8.28599 7.84706 10.5565C6.21034 12.8271 5.33078 15.5557 5.33335 18.3546V32C5.33335 52.168 29.8667 63.3066 30.9173 63.7706C31.2582 63.9221 31.627 64.0003 32 64.0003C32.373 64.0003 32.7418 63.9221 33.0827 63.7706C34.1333 63.3066 58.6667 52.168 58.6667 32V18.3546C58.6692 15.5557 57.7897 12.8271 56.153 10.5565C54.5162 8.28599 52.2056 6.58899 49.5493 5.70664V5.70664ZM53.3333 32C53.3333 46.5466 36.4827 56.088 32 58.3706C27.512 56.096 10.6667 46.584 10.6667 32V18.3546C10.6668 16.6754 11.1954 15.0387 12.1775 13.6766C13.1596 12.3145 14.5455 11.296 16.1387 10.7653L32 5.4773L47.8613 10.7653C49.4546 11.296 50.8404 12.3145 51.8225 13.6766C52.8046 15.0387 53.3332 16.6754 53.3333 18.3546V32Z" fill="white" fill-opacity="0.5"/>
<path d="M49.5493 5.70664L32.8427 0.135971C32.2957 -0.0462188 31.7044 -0.0462188 31.1573 0.135971L14.4507 5.70664C11.7944 6.58899 9.48379 8.28599 7.84706 10.5565C6.21034 12.8271 5.33078 15.5557 5.33335 18.3546V32C5.33335 52.168 29.8667 63.3066 30.9173 63.7706C31.2582 63.9221 31.627 64.0003 32 64.0003C32.373 64.0003 32.7418 63.9221 33.0827 63.7706C34.1333 63.3066 58.6667 52.168 58.6667 32V18.3546C58.6692 15.5557 57.7897 12.8271 56.153 10.5565C54.5162 8.28599 52.2056 6.58899 49.5493 5.70664V5.70664ZM53.3333 32C53.3333 46.5466 36.4827 56.088 32 58.3706C27.512 56.096 10.6667 46.584 10.6667 32V18.3546C10.6668 16.6754 11.1954 15.0387 12.1775 13.6766C13.1596 12.3145 14.5455 11.296 16.1387 10.7653L32 5.4773L47.8613 10.7653C49.4546 11.296 50.8404 12.3145 51.8225 13.6766C52.8046 15.0387 53.3332 16.6754 53.3333 18.3546V32Z" fill="url(#paint0_linear_86_506)"/>
</g>
<g filter="url(#filter2_i_86_506)">
<path d="M40.8 22.1334L29.632 33.3333L23.648 27.0933C23.4079 26.8308 23.1176 26.6189 22.7943 26.4703C22.471 26.3216 22.1212 26.2392 21.7656 26.2278C21.41 26.2164 21.0556 26.2763 20.7235 26.404C20.3913 26.5316 20.0881 26.7245 19.8317 26.9711C19.5752 27.2178 19.3707 27.5133 19.2302 27.8402C19.0897 28.1671 19.0161 28.5189 19.0136 28.8747C19.0112 29.2305 19.08 29.5832 19.2159 29.9121C19.3519 30.2409 19.5523 30.5392 19.8053 30.7893L25.9547 37.1893C26.4133 37.6847 26.9676 38.0819 27.5841 38.3569C28.2005 38.6319 28.8664 38.779 29.5413 38.7893H29.6293C30.2908 38.7915 30.9461 38.6623 31.5573 38.4091C32.1684 38.156 32.7232 37.784 33.1893 37.3147L44.5813 25.9227C44.8302 25.6744 45.0276 25.3795 45.1625 25.0549C45.2973 24.7303 45.3669 24.3823 45.3673 24.0308C45.3677 23.6793 45.2988 23.3312 45.1646 23.0063C45.0305 22.6814 44.8336 22.3862 44.5853 22.1374C44.3371 21.8885 44.0422 21.6911 43.7176 21.5562C43.393 21.4214 43.045 21.3518 42.6935 21.3514C42.342 21.351 41.9939 21.4199 41.669 21.554C41.3441 21.6882 41.0488 21.8851 40.8 22.1334V22.1334Z" fill="white" fill-opacity="0.5"/>
<path d="M40.8 22.1334L29.632 33.3333L23.648 27.0933C23.4079 26.8308 23.1176 26.6189 22.7943 26.4703C22.471 26.3216 22.1212 26.2392 21.7656 26.2278C21.41 26.2164 21.0556 26.2763 20.7235 26.404C20.3913 26.5316 20.0881 26.7245 19.8317 26.9711C19.5752 27.2178 19.3707 27.5133 19.2302 27.8402C19.0897 28.1671 19.0161 28.5189 19.0136 28.8747C19.0112 29.2305 19.08 29.5832 19.2159 29.9121C19.3519 30.2409 19.5523 30.5392 19.8053 30.7893L25.9547 37.1893C26.4133 37.6847 26.9676 38.0819 27.5841 38.3569C28.2005 38.6319 28.8664 38.779 29.5413 38.7893H29.6293C30.2908 38.7915 30.9461 38.6623 31.5573 38.4091C32.1684 38.156 32.7232 37.784 33.1893 37.3147L44.5813 25.9227C44.8302 25.6744 45.0276 25.3795 45.1625 25.0549C45.2973 24.7303 45.3669 24.3823 45.3673 24.0308C45.3677 23.6793 45.2988 23.3312 45.1646 23.0063C45.0305 22.6814 44.8336 22.3862 44.5853 22.1374C44.3371 21.8885 44.0422 21.6911 43.7176 21.5562C43.393 21.4214 43.045 21.3518 42.6935 21.3514C42.342 21.351 41.9939 21.4199 41.669 21.554C41.3441 21.6882 41.0488 21.8851 40.8 22.1334V22.1334Z" fill="url(#paint1_linear_86_506)"/>
</g>
</g>
<defs>
<filter id="filter0_d_86_506" x="-4" y="-0.000671387" width="72" height="72.001" filterUnits="userSpaceOnUse" color-interpolation-filters="sRGB">
<feFlood flood-opacity="0" result="BackgroundImageFix"/>
<feColorMatrix in="SourceAlpha" type="matrix" values="0 0 0 0 0 0 0 0 0 0 0 0 0 0 0 0 0 0 127 0" result="hardAlpha"/>
<feOffset dy="4"/>
<feGaussianBlur stdDeviation="2"/>
<feColorMatrix type="matrix" values="0 0 0 0 0 0 0 0 0 0 0 0 0 0 0 0 0 0 0.25 0"/>
<feBlend mode="normal" in2="BackgroundImageFix" result="effect1_dropShadow_86_506"/>
<feBlend mode="normal" in="SourceGraphic" in2="effect1_dropShadow_86_506" result="shape"/>
</filter>
<filter id="filter1_i_86_506" x="5.33334" y="-1.00067" width="53.3333" height="65.001" filterUnits="userSpaceOnUse" color-interpolation-filters="sRGB">
<feFlood flood-opacity="0" result="BackgroundImageFix"/>
<feBlend mode="normal" in="SourceGraphic" in2="BackgroundImageFix" result="shape"/>
<feColorMatrix in="SourceAlpha" type="matrix" values="0 0 0 0 0 0 0 0 0 0 0 0 0 0 0 0 0 0 127 0" result="hardAlpha"/>
<feOffset dy="-1"/>
<feGaussianBlur stdDeviation="1"/>
<feComposite in2="hardAlpha" operator="arithmetic" k2="-1" k3="1"/>
<feColorMatrix type="matrix" values="0 0 0 0 1 0 0 0 0 0 0 0 0 0 0 0 0 0 0.75 0"/>
<feBlend mode="color-dodge" in2="shape" result="effect1_innerShadow_86_506"/>
</filter>
<filter id="filter2_i_86_506" x="19.0136" y="20.3514" width="26.3537" height="18.438" filterUnits="userSpaceOnUse" color-interpolation-filters="sRGB">
<feFlood flood-opacity="0" result="BackgroundImageFix"/>
<feBlend mode="normal" in="SourceGraphic" in2="BackgroundImageFix" result="shape"/>
<feColorMatrix in="SourceAlpha" type="matrix" values="0 0 0 0 0 0 0 0 0 0 0 0 0 0 0 0 0 0 127 0" result="hardAlpha"/>
<feOffset dy="-1"/>
<feGaussianBlur stdDeviation="1"/>
<feComposite in2="hardAlpha" operator="arithmetic" k2="-1" k3="1"/>
<feColorMatrix type="matrix" values="0 0 0 0 1 0 0 0 0 0 0 0 0 0 0 0 0 0 0.75 0"/>
<feBlend mode="color-dodge" in2="shape" result="effect1_innerShadow_86_506"/>
</filter>
<linearGradient id="paint0_linear_86_506" x1="58.9998" y1="-13" x2="58.9998" y2="80" gradientUnits="userSpaceOnUse">
<stop stop-color="#CE4242"/>
<stop offset="1" stop-color="#527FE1"/>
</linearGradient>
<linearGradient id="paint1_linear_86_506" x1="45.5319" y1="17.8095" x2="45.5319" y2="43.1487" gradientUnits="userSpaceOnUse">
<stop stop-color="#CE4242"/>
<stop offset="1" stop-color="#527FE1"/>
</linearGradient>
</defs>
</svg>
