<svg width="65" height="60" viewBox="0 0 65 60" fill="none" xmlns="http://www.w3.org/2000/svg">
<g filter="url(#filter0_i_369_116)">
<path d="M63.7333 28.4986C62.6856 20.4331 58.6059 13.0691 52.3236 7.90355C46.0412 2.73797 38.0277 0.158404 29.9117 0.68917C21.7957 1.21993 14.1864 4.8212 8.63028 10.761C3.07421 16.7008 -0.0116276 24.5333 -1.61458e-05 32.6666C-0.0153879 37.02 0.866805 41.3298 2.59149 45.327C4.31617 49.3242 6.84632 52.923 10.024 55.8986C12.4542 58.1487 15.6564 59.3783 18.968 59.3333H45.0133C48.5119 59.3415 51.8732 57.9727 54.3706 55.5226C57.9299 52.0598 60.6301 47.8128 62.2557 43.1206C63.8814 38.4284 64.3874 33.4212 63.7333 28.4986V28.4986ZM50.6426 51.6986C49.1423 53.1769 47.1195 54.0038 45.0133 54H18.968C17.0194 54.04 15.1293 53.333 13.6853 52.024C11.038 49.5443 8.93018 46.5457 7.4932 43.2152C6.05622 39.8847 5.32097 36.2939 5.33332 32.6666C5.33594 28.9126 6.13004 25.2013 7.66382 21.7749C9.19759 18.3485 11.4366 15.284 14.2346 12.7813C19.0964 8.39706 25.4161 5.97963 31.9626 5.99998C33.0087 6.00041 34.0538 6.05917 35.0933 6.17598C40.0949 6.75687 44.8297 8.74281 48.7491 11.9038C52.6686 15.0647 55.6124 19.2714 57.2395 24.0365C58.8667 28.8016 59.1106 33.9301 57.9431 38.8282C56.7756 43.7262 54.2444 48.1933 50.6426 51.712V51.6986ZM20.8186 44.0933C21.3243 44.5884 21.6126 45.264 21.6201 45.9717C21.6276 46.6793 21.3537 47.361 20.8586 47.8666C20.3636 48.3723 19.6879 48.6606 18.9803 48.6681C18.2726 48.6756 17.591 48.4017 17.0853 47.9066C14.0585 44.9418 11.9832 41.1428 11.1237 36.9939C10.2643 32.845 10.6598 28.5342 12.2597 24.611C13.8596 20.6877 16.5915 17.3297 20.1072 14.965C23.6228 12.6003 27.763 11.336 32 11.3333C33.0198 11.333 34.0384 11.4052 35.048 11.5493C35.3947 11.5993 35.7282 11.7171 36.0294 11.896C36.3306 12.0749 36.5935 12.3114 36.8033 12.592C37.013 12.8726 37.1655 13.1917 37.2518 13.5312C37.3382 13.8707 37.3568 14.2239 37.3066 14.5706C37.2607 14.9193 37.1455 15.2552 36.9679 15.5586C36.7903 15.8621 36.5537 16.1269 36.2722 16.3376C35.9907 16.5483 35.6699 16.7006 35.3287 16.7855C34.9875 16.8704 34.6327 16.8862 34.2853 16.832C30.9479 16.3553 27.5453 16.9449 24.5629 18.5168C21.5805 20.0886 19.1708 22.5624 17.6777 25.5849C16.1846 28.6075 15.6844 32.0245 16.2485 35.3482C16.8125 38.6719 18.412 41.7325 20.8186 44.0933V44.0933ZM53.1173 29.6186C53.2614 30.6282 53.3336 31.6468 53.3333 32.6666C53.3419 35.5084 52.7778 38.3228 51.6745 40.9417C50.5712 43.5606 48.9515 45.9303 46.912 47.9093C46.4056 48.4044 45.7233 48.678 45.0151 48.67C44.307 48.662 43.6311 48.373 43.136 47.8666C42.6409 47.3603 42.3673 46.6779 42.3753 45.9698C42.3833 45.2617 42.6723 44.5857 43.1786 44.0906C44.9804 42.3344 46.341 40.1768 47.1493 37.7941C47.9576 35.4114 48.1906 32.8713 47.8293 30.3813C47.7282 29.6808 47.9095 28.9688 48.3333 28.4019C48.7571 27.8351 49.3888 27.4598 50.0893 27.3586C50.7898 27.2575 51.5018 27.4388 52.0687 27.8626C52.6356 28.2865 53.0108 28.9181 53.112 29.6186H53.1173ZM37.136 31.3013C37.4569 32.4553 37.3866 33.6831 36.936 34.793C36.4855 35.9028 35.6801 36.8322 34.6456 37.436C33.6111 38.0397 32.4058 38.2839 31.2179 38.1304C30.03 37.9768 28.9264 37.4342 28.0794 36.5872C27.2324 35.7403 26.6898 34.6366 26.5362 33.4487C26.3827 32.2608 26.6269 31.0555 27.2307 30.021C27.8345 28.9865 28.7638 28.1811 29.8737 27.7306C30.9835 27.28 32.2113 27.2097 33.3653 27.5306L43.448 17.448C43.694 17.1933 43.9882 16.9901 44.3136 16.8504C44.6389 16.7106 44.9888 16.6371 45.3429 16.634C45.697 16.6309 46.0481 16.6984 46.3759 16.8325C46.7036 16.9665 47.0013 17.1645 47.2517 17.4149C47.5021 17.6653 47.7001 17.963 47.8342 18.2908C47.9683 18.6185 48.0357 18.9696 48.0326 19.3237C48.0296 19.6778 47.956 20.0277 47.8162 20.3531C47.6765 20.6784 47.4733 20.9727 47.2186 21.2186L37.136 31.3013Z" fill="white" fill-opacity="0.5"/>
<path d="M63.7333 28.4986C62.6856 20.4331 58.6059 13.0691 52.3236 7.90355C46.0412 2.73797 38.0277 0.158404 29.9117 0.68917C21.7957 1.21993 14.1864 4.8212 8.63028 10.761C3.07421 16.7008 -0.0116276 24.5333 -1.61458e-05 32.6666C-0.0153879 37.02 0.866805 41.3298 2.59149 45.327C4.31617 49.3242 6.84632 52.923 10.024 55.8986C12.4542 58.1487 15.6564 59.3783 18.968 59.3333H45.0133C48.5119 59.3415 51.8732 57.9727 54.3706 55.5226C57.9299 52.0598 60.6301 47.8128 62.2557 43.1206C63.8814 38.4284 64.3874 33.4212 63.7333 28.4986V28.4986ZM50.6426 51.6986C49.1423 53.1769 47.1195 54.0038 45.0133 54H18.968C17.0194 54.04 15.1293 53.333 13.6853 52.024C11.038 49.5443 8.93018 46.5457 7.4932 43.2152C6.05622 39.8847 5.32097 36.2939 5.33332 32.6666C5.33594 28.9126 6.13004 25.2013 7.66382 21.7749C9.19759 18.3485 11.4366 15.284 14.2346 12.7813C19.0964 8.39706 25.4161 5.97963 31.9626 5.99998C33.0087 6.00041 34.0538 6.05917 35.0933 6.17598C40.0949 6.75687 44.8297 8.74281 48.7491 11.9038C52.6686 15.0647 55.6124 19.2714 57.2395 24.0365C58.8667 28.8016 59.1106 33.9301 57.9431 38.8282C56.7756 43.7262 54.2444 48.1933 50.6426 51.712V51.6986ZM20.8186 44.0933C21.3243 44.5884 21.6126 45.264 21.6201 45.9717C21.6276 46.6793 21.3537 47.361 20.8586 47.8666C20.3636 48.3723 19.6879 48.6606 18.9803 48.6681C18.2726 48.6756 17.591 48.4017 17.0853 47.9066C14.0585 44.9418 11.9832 41.1428 11.1237 36.9939C10.2643 32.845 10.6598 28.5342 12.2597 24.611C13.8596 20.6877 16.5915 17.3297 20.1072 14.965C23.6228 12.6003 27.763 11.336 32 11.3333C33.0198 11.333 34.0384 11.4052 35.048 11.5493C35.3947 11.5993 35.7282 11.7171 36.0294 11.896C36.3306 12.0749 36.5935 12.3114 36.8033 12.592C37.013 12.8726 37.1655 13.1917 37.2518 13.5312C37.3382 13.8707 37.3568 14.2239 37.3066 14.5706C37.2607 14.9193 37.1455 15.2552 36.9679 15.5586C36.7903 15.8621 36.5537 16.1269 36.2722 16.3376C35.9907 16.5483 35.6699 16.7006 35.3287 16.7855C34.9875 16.8704 34.6327 16.8862 34.2853 16.832C30.9479 16.3553 27.5453 16.9449 24.5629 18.5168C21.5805 20.0886 19.1708 22.5624 17.6777 25.5849C16.1846 28.6075 15.6844 32.0245 16.2485 35.3482C16.8125 38.6719 18.412 41.7325 20.8186 44.0933V44.0933ZM53.1173 29.6186C53.2614 30.6282 53.3336 31.6468 53.3333 32.6666C53.3419 35.5084 52.7778 38.3228 51.6745 40.9417C50.5712 43.5606 48.9515 45.9303 46.912 47.9093C46.4056 48.4044 45.7233 48.678 45.0151 48.67C44.307 48.662 43.6311 48.373 43.136 47.8666C42.6409 47.3603 42.3673 46.6779 42.3753 45.9698C42.3833 45.2617 42.6723 44.5857 43.1786 44.0906C44.9804 42.3344 46.341 40.1768 47.1493 37.7941C47.9576 35.4114 48.1906 32.8713 47.8293 30.3813C47.7282 29.6808 47.9095 28.9688 48.3333 28.4019C48.7571 27.8351 49.3888 27.4598 50.0893 27.3586C50.7898 27.2575 51.5018 27.4388 52.0687 27.8626C52.6356 28.2865 53.0108 28.9181 53.112 29.6186H53.1173ZM37.136 31.3013C37.4569 32.4553 37.3866 33.6831 36.936 34.793C36.4855 35.9028 35.6801 36.8322 34.6456 37.436C33.6111 38.0397 32.4058 38.2839 31.2179 38.1304C30.03 37.9768 28.9264 37.4342 28.0794 36.5872C27.2324 35.7403 26.6898 34.6366 26.5362 33.4487C26.3827 32.2608 26.6269 31.0555 27.2307 30.021C27.8345 28.9865 28.7638 28.1811 29.8737 27.7306C30.9835 27.28 32.2113 27.2097 33.3653 27.5306L43.448 17.448C43.694 17.1933 43.9882 16.9901 44.3136 16.8504C44.6389 16.7106 44.9888 16.6371 45.3429 16.634C45.697 16.6309 46.0481 16.6984 46.3759 16.8325C46.7036 16.9665 47.0013 17.1645 47.2517 17.4149C47.5021 17.6653 47.7001 17.963 47.8342 18.2908C47.9683 18.6185 48.0357 18.9696 48.0326 19.3237C48.0296 19.6778 47.956 20.0277 47.8162 20.3531C47.6765 20.6784 47.4733 20.9727 47.2186 21.2186L37.136 31.3013Z" fill="url(#paint0_linear_369_116)"/>
</g>
<defs>
<filter id="filter0_i_369_116" x="-0.000213623" y="-0.379089" width="64.011" height="59.7136" filterUnits="userSpaceOnUse" color-interpolation-filters="sRGB">
<feFlood flood-opacity="0" result="BackgroundImageFix"/>
<feBlend mode="normal" in="SourceGraphic" in2="BackgroundImageFix" result="shape"/>
<feColorMatrix in="SourceAlpha" type="matrix" values="0 0 0 0 0 0 0 0 0 0 0 0 0 0 0 0 0 0 127 0" result="hardAlpha"/>
<feOffset dy="-1"/>
<feGaussianBlur stdDeviation="1"/>
<feComposite in2="hardAlpha" operator="arithmetic" k2="-1" k3="1"/>
<feColorMatrix type="matrix" values="0 0 0 0 1 0 0 0 0 0 0 0 0 0 0 0 0 0 0.75 0"/>
<feBlend mode="color-dodge" in2="shape" result="effect1_innerShadow_369_116"/>
</filter>
<linearGradient id="paint0_linear_369_116" x1="64.4107" y1="-11.3045" x2="64.4107" y2="74.0124" gradientUnits="userSpaceOnUse">
<stop stop-color="#CE4242"/>
<stop offset="1" stop-color="#527FE1"/>
</linearGradient>
</defs>
</svg>
