<svg width="64" height="64" viewBox="0 0 64 64" fill="none" xmlns="http://www.w3.org/2000/svg">
<g filter="url(#filter0_i_369_43)">
<path d="M2.66667 12.6667H9.96267C10.535 14.7726 11.7845 16.6317 13.5182 17.9572C15.2519 19.2826 17.3737 20.0007 19.556 20.0007C21.7383 20.0007 23.8601 19.2826 25.5938 17.9572C27.3275 16.6317 28.577 14.7726 29.1493 12.6667H61.3333C62.0406 12.6667 62.7189 12.3857 63.219 11.8856C63.7191 11.3855 64 10.7073 64 10C64 9.29277 63.7191 8.6145 63.219 8.1144C62.7189 7.6143 62.0406 7.33335 61.3333 7.33335H29.1493C28.577 5.2274 27.3275 3.3683 25.5938 2.04287C23.8601 0.717438 21.7383 -0.000671387 19.556 -0.000671387C17.3737 -0.000671387 15.2519 0.717438 13.5182 2.04287C11.7845 3.3683 10.535 5.2274 9.96267 7.33335H2.66667C1.95942 7.33335 1.28115 7.6143 0.781049 8.1144C0.280952 8.6145 0 9.29277 0 10C0 10.7073 0.280952 11.3855 0.781049 11.8856C1.28115 12.3857 1.95942 12.6667 2.66667 12.6667ZM19.5547 5.33335C20.4776 5.33335 21.3799 5.60705 22.1473 6.11983C22.9148 6.63261 23.5129 7.36144 23.8661 8.21416C24.2193 9.06688 24.3117 10.0052 24.1317 10.9104C23.9516 11.8157 23.5071 12.6472 22.8545 13.2998C22.2019 13.9525 21.3703 14.397 20.4651 14.577C19.5598 14.7571 18.6215 14.6647 17.7688 14.3115C16.9161 13.9582 16.1873 13.3601 15.6745 12.5927C15.1617 11.8253 14.888 10.923 14.888 10C14.8894 8.76277 15.3815 7.57661 16.2564 6.70175C17.1313 5.82688 18.3174 5.33476 19.5547 5.33335Z" fill="white" fill-opacity="0.5"/>
<path d="M2.66667 12.6667H9.96267C10.535 14.7726 11.7845 16.6317 13.5182 17.9572C15.2519 19.2826 17.3737 20.0007 19.556 20.0007C21.7383 20.0007 23.8601 19.2826 25.5938 17.9572C27.3275 16.6317 28.577 14.7726 29.1493 12.6667H61.3333C62.0406 12.6667 62.7189 12.3857 63.219 11.8856C63.7191 11.3855 64 10.7073 64 10C64 9.29277 63.7191 8.6145 63.219 8.1144C62.7189 7.6143 62.0406 7.33335 61.3333 7.33335H29.1493C28.577 5.2274 27.3275 3.3683 25.5938 2.04287C23.8601 0.717438 21.7383 -0.000671387 19.556 -0.000671387C17.3737 -0.000671387 15.2519 0.717438 13.5182 2.04287C11.7845 3.3683 10.535 5.2274 9.96267 7.33335H2.66667C1.95942 7.33335 1.28115 7.6143 0.781049 8.1144C0.280952 8.6145 0 9.29277 0 10C0 10.7073 0.280952 11.3855 0.781049 11.8856C1.28115 12.3857 1.95942 12.6667 2.66667 12.6667ZM19.5547 5.33335C20.4776 5.33335 21.3799 5.60705 22.1473 6.11983C22.9148 6.63261 23.5129 7.36144 23.8661 8.21416C24.2193 9.06688 24.3117 10.0052 24.1317 10.9104C23.9516 11.8157 23.5071 12.6472 22.8545 13.2998C22.2019 13.9525 21.3703 14.397 20.4651 14.577C19.5598 14.7571 18.6215 14.6647 17.7688 14.3115C16.9161 13.9582 16.1873 13.3601 15.6745 12.5927C15.1617 11.8253 14.888 10.923 14.888 10C14.8894 8.76277 15.3815 7.57661 16.2564 6.70175C17.1313 5.82688 18.3174 5.33476 19.5547 5.33335Z" fill="url(#paint0_linear_369_43)"/>
<path d="M61.3333 29.3333H54.0373C53.4659 27.2269 52.217 25.3671 50.4834 24.0412C48.7498 22.7152 46.6279 21.9967 44.4453 21.9967C42.2628 21.9967 40.1409 22.7152 38.4073 24.0412C36.6737 25.3671 35.4248 27.2269 34.8533 29.3333H2.66667C1.95942 29.3333 1.28115 29.6143 0.781049 30.1144C0.280952 30.6145 0 31.2928 0 32C0 32.7073 0.280952 33.3855 0.781049 33.8856C1.28115 34.3857 1.95942 34.6667 2.66667 34.6667H34.8533C35.4248 36.7731 36.6737 38.6329 38.4073 39.9589C40.1409 41.2849 42.2628 42.0033 44.4453 42.0033C46.6279 42.0033 48.7498 41.2849 50.4834 39.9589C52.217 38.6329 53.4659 36.7731 54.0373 34.6667H61.3333C62.0406 34.6667 62.7189 34.3857 63.219 33.8856C63.7191 33.3855 64 32.7073 64 32C64 31.2928 63.7191 30.6145 63.219 30.1144C62.7189 29.6143 62.0406 29.3333 61.3333 29.3333ZM44.4453 36.6667C43.5224 36.6667 42.6201 36.393 41.8527 35.8802C41.0852 35.3674 40.4871 34.6386 40.1339 33.7859C39.7807 32.9331 39.6883 31.9948 39.8683 31.0896C40.0484 30.1844 40.4929 29.3528 41.1455 28.7002C41.7981 28.0475 42.6297 27.6031 43.5349 27.423C44.4402 27.243 45.3785 27.3354 46.2312 27.6886C47.0839 28.0418 47.8127 28.6399 48.3255 29.4074C48.8383 30.1748 49.112 31.077 49.112 32C49.1106 33.2373 48.6185 34.4234 47.7436 35.2983C46.8687 36.1732 45.6826 36.6653 44.4453 36.6667Z" fill="white" fill-opacity="0.5"/>
<path d="M61.3333 29.3333H54.0373C53.4659 27.2269 52.217 25.3671 50.4834 24.0412C48.7498 22.7152 46.6279 21.9967 44.4453 21.9967C42.2628 21.9967 40.1409 22.7152 38.4073 24.0412C36.6737 25.3671 35.4248 27.2269 34.8533 29.3333H2.66667C1.95942 29.3333 1.28115 29.6143 0.781049 30.1144C0.280952 30.6145 0 31.2928 0 32C0 32.7073 0.280952 33.3855 0.781049 33.8856C1.28115 34.3857 1.95942 34.6667 2.66667 34.6667H34.8533C35.4248 36.7731 36.6737 38.6329 38.4073 39.9589C40.1409 41.2849 42.2628 42.0033 44.4453 42.0033C46.6279 42.0033 48.7498 41.2849 50.4834 39.9589C52.217 38.6329 53.4659 36.7731 54.0373 34.6667H61.3333C62.0406 34.6667 62.7189 34.3857 63.219 33.8856C63.7191 33.3855 64 32.7073 64 32C64 31.2928 63.7191 30.6145 63.219 30.1144C62.7189 29.6143 62.0406 29.3333 61.3333 29.3333ZM44.4453 36.6667C43.5224 36.6667 42.6201 36.393 41.8527 35.8802C41.0852 35.3674 40.4871 34.6386 40.1339 33.7859C39.7807 32.9331 39.6883 31.9948 39.8683 31.0896C40.0484 30.1844 40.4929 29.3528 41.1455 28.7002C41.7981 28.0475 42.6297 27.6031 43.5349 27.423C44.4402 27.243 45.3785 27.3354 46.2312 27.6886C47.0839 28.0418 47.8127 28.6399 48.3255 29.4074C48.8383 30.1748 49.112 31.077 49.112 32C49.1106 33.2373 48.6185 34.4234 47.7436 35.2983C46.8687 36.1732 45.6826 36.6653 44.4453 36.6667Z" fill="url(#paint1_linear_369_43)"/>
<path d="M61.3333 51.3334H29.1493C28.577 49.2274 27.3275 47.3683 25.5938 46.0429C23.8601 44.7174 21.7383 43.9993 19.556 43.9993C17.3737 43.9993 15.2519 44.7174 13.5182 46.0429C11.7845 47.3683 10.535 49.2274 9.96267 51.3334H2.66667C1.95942 51.3334 1.28115 51.6143 0.781049 52.1144C0.280952 52.6145 0 53.2928 0 54C0 54.7073 0.280952 55.3855 0.781049 55.8856C1.28115 56.3857 1.95942 56.6667 2.66667 56.6667H9.96267C10.535 58.7726 11.7845 60.6317 13.5182 61.9572C15.2519 63.2826 17.3737 64.0007 19.556 64.0007C21.7383 64.0007 23.8601 63.2826 25.5938 61.9572C27.3275 60.6317 28.577 58.7726 29.1493 56.6667H61.3333C62.0406 56.6667 62.7189 56.3857 63.219 55.8856C63.7191 55.3855 64 54.7073 64 54C64 53.2928 63.7191 52.6145 63.219 52.1144C62.7189 51.6143 62.0406 51.3334 61.3333 51.3334ZM19.5547 58.6667C18.6317 58.6667 17.7294 58.393 16.962 57.8802C16.1946 57.3674 15.5964 56.6386 15.2432 55.7859C14.89 54.9332 14.7976 53.9948 14.9777 53.0896C15.1577 52.1844 15.6022 51.3528 16.2548 50.7002C16.9075 50.0475 17.739 49.6031 18.6442 49.423C19.5495 49.243 20.4878 49.3354 21.3405 49.6886C22.1932 50.0418 22.9221 50.6399 23.4349 51.4074C23.9476 52.1748 24.2213 53.077 24.2213 54C24.2192 55.237 23.7269 56.4228 22.8522 57.2975C21.9775 58.1722 20.7917 58.6646 19.5547 58.6667Z" fill="white" fill-opacity="0.5"/>
<path d="M61.3333 51.3334H29.1493C28.577 49.2274 27.3275 47.3683 25.5938 46.0429C23.8601 44.7174 21.7383 43.9993 19.556 43.9993C17.3737 43.9993 15.2519 44.7174 13.5182 46.0429C11.7845 47.3683 10.535 49.2274 9.96267 51.3334H2.66667C1.95942 51.3334 1.28115 51.6143 0.781049 52.1144C0.280952 52.6145 0 53.2928 0 54C0 54.7073 0.280952 55.3855 0.781049 55.8856C1.28115 56.3857 1.95942 56.6667 2.66667 56.6667H9.96267C10.535 58.7726 11.7845 60.6317 13.5182 61.9572C15.2519 63.2826 17.3737 64.0007 19.556 64.0007C21.7383 64.0007 23.8601 63.2826 25.5938 61.9572C27.3275 60.6317 28.577 58.7726 29.1493 56.6667H61.3333C62.0406 56.6667 62.7189 56.3857 63.219 55.8856C63.7191 55.3855 64 54.7073 64 54C64 53.2928 63.7191 52.6145 63.219 52.1144C62.7189 51.6143 62.0406 51.3334 61.3333 51.3334ZM19.5547 58.6667C18.6317 58.6667 17.7294 58.393 16.962 57.8802C16.1946 57.3674 15.5964 56.6386 15.2432 55.7859C14.89 54.9332 14.7976 53.9948 14.9777 53.0896C15.1577 52.1844 15.6022 51.3528 16.2548 50.7002C16.9075 50.0475 17.739 49.6031 18.6442 49.423C19.5495 49.243 20.4878 49.3354 21.3405 49.6886C22.1932 50.0418 22.9221 50.6399 23.4349 51.4074C23.9476 52.1748 24.2213 53.077 24.2213 54C24.2192 55.237 23.7269 56.4228 22.8522 57.2975C21.9775 58.1722 20.7917 58.6646 19.5547 58.6667Z" fill="url(#paint2_linear_369_43)"/>
</g>
<defs>
<filter id="filter0_i_369_43" x="0" y="-1.00067" width="64" height="65.0014" filterUnits="userSpaceOnUse" color-interpolation-filters="sRGB">
<feFlood flood-opacity="0" result="BackgroundImageFix"/>
<feBlend mode="normal" in="SourceGraphic" in2="BackgroundImageFix" result="shape"/>
<feColorMatrix in="SourceAlpha" type="matrix" values="0 0 0 0 0 0 0 0 0 0 0 0 0 0 0 0 0 0 127 0" result="hardAlpha"/>
<feOffset dy="-1"/>
<feGaussianBlur stdDeviation="1"/>
<feComposite in2="hardAlpha" operator="arithmetic" k2="-1" k3="1"/>
<feColorMatrix type="matrix" values="0 0 0 0 1 0 0 0 0 0 0 0 0 0 0 0 0 0 0.75 0"/>
<feBlend mode="color-dodge" in2="shape" result="effect1_innerShadow_369_43"/>
</filter>
<linearGradient id="paint0_linear_369_43" x1="64.3998" y1="-13.0001" x2="64.3998" y2="80.0005" gradientUnits="userSpaceOnUse">
<stop stop-color="#CE4242"/>
<stop offset="1" stop-color="#527FE1"/>
</linearGradient>
<linearGradient id="paint1_linear_369_43" x1="64.3998" y1="-13.0001" x2="64.3998" y2="80.0005" gradientUnits="userSpaceOnUse">
<stop stop-color="#CE4242"/>
<stop offset="1" stop-color="#527FE1"/>
</linearGradient>
<linearGradient id="paint2_linear_369_43" x1="64.3998" y1="-13.0001" x2="64.3998" y2="80.0005" gradientUnits="userSpaceOnUse">
<stop stop-color="#CE4242"/>
<stop offset="1" stop-color="#527FE1"/>
</linearGradient>
</defs>
</svg>
