<svg width="80" height="70" viewBox="0 0 80 70" fill="none" xmlns="http://www.w3.org/2000/svg">
<g filter="url(#filter0_i_1137_411)">
<path fill-rule="evenodd" clip-rule="evenodd" d="M11.0744 30.3871C13.3483 14.2542 28.2699 3.01918 44.4029 5.29303C47.6522 5.751 50.6981 6.72041 53.4737 8.10662C54.709 8.72352 56.2104 8.22226 56.8273 6.98702C57.4442 5.75179 56.943 4.25034 55.7077 3.63344C52.4553 2.00915 48.8913 0.876232 45.1007 0.341969C26.2334 -2.31728 8.78261 10.822 6.12335 29.6893C5.80528 31.946 5.71336 34.1839 5.83062 36.3793L4.31823 34.95C3.31474 34.0017 1.73246 34.0464 0.784107 35.0498C-0.164249 36.0533 -0.119557 37.6356 0.88393 38.584L7.79134 45.1119C8.31394 45.6058 9.0239 45.8507 9.73987 45.7842C10.4558 45.7176 11.1085 45.346 11.5311 44.7643L16.8552 37.4356C17.6667 36.3186 17.419 34.7551 16.3019 33.9436C15.1849 33.1321 13.6214 33.3798 12.8099 34.4969L10.8958 37.1318C10.7011 34.9308 10.7524 32.6721 11.0744 30.3871ZM71.7841 21.1461C71.1853 20.6428 70.3856 20.4488 69.6228 20.6217C68.8599 20.7946 68.222 21.3146 67.8989 22.0269L64.2365 30.0988C63.666 31.3561 64.2228 32.8379 65.4801 33.4084C66.7375 33.9788 68.2192 33.422 68.7897 32.1647L69.5265 30.5408C69.88 33.1603 69.8845 35.8723 69.497 38.6215C67.2231 54.7544 52.3015 65.9894 36.1685 63.7156C33.8071 63.3828 31.5536 62.7799 29.4337 61.9437C28.1493 61.437 26.6974 62.0675 26.1907 63.3519C25.6841 64.6363 26.3146 66.0882 27.599 66.5949C30.082 67.5743 32.7169 68.2785 35.4707 68.6666C54.338 71.3259 71.7888 58.1867 74.448 39.3193C74.8965 36.1376 74.8953 32.9942 74.4926 29.9544L75.7902 31.0452C76.8471 31.9336 78.4241 31.797 79.3125 30.74C80.2009 29.6831 80.0643 28.1061 79.0074 27.2177L71.7841 21.1461ZM61.3256 10.5687C62.0063 10.7486 62.6282 11.1032 63.1298 11.5973C63.6064 12.0715 63.9553 12.6586 64.1441 13.304C64.3328 13.9493 64.3554 14.6319 64.2095 15.2882C62.6096 20.2401 59.8624 24.7438 56.1918 28.4325L37.2472 47.3791C37.4986 47.8449 37.7371 48.3171 37.9623 48.7951C38.425 49.7772 37.9397 50.9234 36.9415 51.3502C35.8979 51.7963 34.699 51.286 34.2009 50.2662C33.4665 48.7625 32.5817 47.3306 31.5568 45.9935L24.1409 53.4114L25.7264 54.9969C25.9174 55.1814 26.0697 55.402 26.1745 55.6459C26.2793 55.8899 26.3345 56.1522 26.3368 56.4177C26.3391 56.6832 26.2885 56.9465 26.188 57.1922C26.0874 57.4379 25.939 57.6612 25.7512 57.8489C25.5635 58.0366 25.3402 58.1851 25.0945 58.2856C24.8488 58.3862 24.5855 58.4368 24.32 58.4345C24.0546 58.4321 23.7922 58.377 23.5482 58.2722C23.3043 58.1674 23.0837 58.0151 22.8992 57.8241L16.9009 51.8258C16.71 51.6414 16.5577 51.4208 16.4529 51.1768C16.3481 50.9329 16.2929 50.6705 16.2906 50.405C16.2883 50.1396 16.3389 49.8763 16.4394 49.6306C16.54 49.3848 16.6884 49.1616 16.8762 48.9739C17.0639 48.7861 17.2871 48.6377 17.5329 48.5371C17.7786 48.4366 18.0419 48.386 18.3074 48.3883C18.5728 48.3906 18.8352 48.4458 19.0791 48.5506C19.3231 48.6554 19.5437 48.8077 19.7281 48.9986L21.3137 50.5842L28.7296 43.1663C27.3171 42.0845 25.7992 41.1588 24.2028 40.401C23.2786 39.9623 22.7472 38.9473 22.9973 37.9554C23.2919 36.7873 24.5362 36.1261 25.6319 36.6267C26.2125 36.8919 26.7849 37.1765 27.348 37.4799L46.2946 18.5353C49.9318 14.9059 54.3683 12.1785 59.2489 10.5716C59.9291 10.3898 60.645 10.3888 61.3256 10.5687ZM53.3626 25.6033L35.0338 43.9341C34.4271 43.1347 33.7671 42.3772 33.0583 41.6667C32.3477 40.959 31.5909 40.299 30.793 39.6913L49.1218 21.3625C52.2591 18.2233 56.0804 15.8527 60.2866 14.4365C58.8667 18.641 56.4974 22.4621 53.3626 25.6033Z" fill="white" fill-opacity="0.5"/>
<path fill-rule="evenodd" clip-rule="evenodd" d="M11.0744 30.3871C13.3483 14.2542 28.2699 3.01918 44.4029 5.29303C47.6522 5.751 50.6981 6.72041 53.4737 8.10662C54.709 8.72352 56.2104 8.22226 56.8273 6.98702C57.4442 5.75179 56.943 4.25034 55.7077 3.63344C52.4553 2.00915 48.8913 0.876232 45.1007 0.341969C26.2334 -2.31728 8.78261 10.822 6.12335 29.6893C5.80528 31.946 5.71336 34.1839 5.83062 36.3793L4.31823 34.95C3.31474 34.0017 1.73246 34.0464 0.784107 35.0498C-0.164249 36.0533 -0.119557 37.6356 0.88393 38.584L7.79134 45.1119C8.31394 45.6058 9.0239 45.8507 9.73987 45.7842C10.4558 45.7176 11.1085 45.346 11.5311 44.7643L16.8552 37.4356C17.6667 36.3186 17.419 34.7551 16.3019 33.9436C15.1849 33.1321 13.6214 33.3798 12.8099 34.4969L10.8958 37.1318C10.7011 34.9308 10.7524 32.6721 11.0744 30.3871ZM71.7841 21.1461C71.1853 20.6428 70.3856 20.4488 69.6228 20.6217C68.8599 20.7946 68.222 21.3146 67.8989 22.0269L64.2365 30.0988C63.666 31.3561 64.2228 32.8379 65.4801 33.4084C66.7375 33.9788 68.2192 33.422 68.7897 32.1647L69.5265 30.5408C69.88 33.1603 69.8845 35.8723 69.497 38.6215C67.2231 54.7544 52.3015 65.9894 36.1685 63.7156C33.8071 63.3828 31.5536 62.7799 29.4337 61.9437C28.1493 61.437 26.6974 62.0675 26.1907 63.3519C25.6841 64.6363 26.3146 66.0882 27.599 66.5949C30.082 67.5743 32.7169 68.2785 35.4707 68.6666C54.338 71.3259 71.7888 58.1867 74.448 39.3193C74.8965 36.1376 74.8953 32.9942 74.4926 29.9544L75.7902 31.0452C76.8471 31.9336 78.4241 31.797 79.3125 30.74C80.2009 29.6831 80.0643 28.1061 79.0074 27.2177L71.7841 21.1461ZM61.3256 10.5687C62.0063 10.7486 62.6282 11.1032 63.1298 11.5973C63.6064 12.0715 63.9553 12.6586 64.1441 13.304C64.3328 13.9493 64.3554 14.6319 64.2095 15.2882C62.6096 20.2401 59.8624 24.7438 56.1918 28.4325L37.2472 47.3791C37.4986 47.8449 37.7371 48.3171 37.9623 48.7951C38.425 49.7772 37.9397 50.9234 36.9415 51.3502C35.8979 51.7963 34.699 51.286 34.2009 50.2662C33.4665 48.7625 32.5817 47.3306 31.5568 45.9935L24.1409 53.4114L25.7264 54.9969C25.9174 55.1814 26.0697 55.402 26.1745 55.6459C26.2793 55.8899 26.3345 56.1522 26.3368 56.4177C26.3391 56.6832 26.2885 56.9465 26.188 57.1922C26.0874 57.4379 25.939 57.6612 25.7512 57.8489C25.5635 58.0366 25.3402 58.1851 25.0945 58.2856C24.8488 58.3862 24.5855 58.4368 24.32 58.4345C24.0546 58.4321 23.7922 58.377 23.5482 58.2722C23.3043 58.1674 23.0837 58.0151 22.8992 57.8241L16.9009 51.8258C16.71 51.6414 16.5577 51.4208 16.4529 51.1768C16.3481 50.9329 16.2929 50.6705 16.2906 50.405C16.2883 50.1396 16.3389 49.8763 16.4394 49.6306C16.54 49.3848 16.6884 49.1616 16.8762 48.9739C17.0639 48.7861 17.2871 48.6377 17.5329 48.5371C17.7786 48.4366 18.0419 48.386 18.3074 48.3883C18.5728 48.3906 18.8352 48.4458 19.0791 48.5506C19.3231 48.6554 19.5437 48.8077 19.7281 48.9986L21.3137 50.5842L28.7296 43.1663C27.3171 42.0845 25.7992 41.1588 24.2028 40.401C23.2786 39.9623 22.7472 38.9473 22.9973 37.9554C23.2919 36.7873 24.5362 36.1261 25.6319 36.6267C26.2125 36.8919 26.7849 37.1765 27.348 37.4799L46.2946 18.5353C49.9318 14.9059 54.3683 12.1785 59.2489 10.5716C59.9291 10.3898 60.645 10.3888 61.3256 10.5687ZM53.3626 25.6033L35.0338 43.9341C34.4271 43.1347 33.7671 42.3772 33.0583 41.6667C32.3477 40.959 31.5909 40.299 30.793 39.6913L49.1218 21.3625C52.2591 18.2233 56.0804 15.8527 60.2866 14.4365C58.8667 18.641 56.4974 22.4621 53.3626 25.6033Z" fill="url(#paint0_linear_1137_411)"/>
</g>
<defs>
<filter id="filter0_i_1137_411" x="0.101074" y="-1" width="79.7978" height="70.0086" filterUnits="userSpaceOnUse" color-interpolation-filters="sRGB">
<feFlood flood-opacity="0" result="BackgroundImageFix"/>
<feBlend mode="normal" in="SourceGraphic" in2="BackgroundImageFix" result="shape"/>
<feColorMatrix in="SourceAlpha" type="matrix" values="0 0 0 0 0 0 0 0 0 0 0 0 0 0 0 0 0 0 127 0" result="hardAlpha"/>
<feOffset dy="-1"/>
<feGaussianBlur stdDeviation="1"/>
<feComposite in2="hardAlpha" operator="arithmetic" k2="-1" k3="1"/>
<feColorMatrix type="matrix" values="0 0 0 0 1 0 0 0 0 0 0 0 0 0 0 0 0 0 0.75 0"/>
<feBlend mode="color-dodge" in2="shape" result="effect1_innerShadow_1137_411"/>
</filter>
<linearGradient id="paint0_linear_1137_411" x1="80.3974" y1="-14.0164" x2="80.3974" y2="86.2601" gradientUnits="userSpaceOnUse">
<stop stop-color="#CE4242"/>
<stop offset="1" stop-color="#527FE1"/>
</linearGradient>
</defs>
</svg>
