<svg width="78" height="77" viewBox="0 0 78 77" fill="none" xmlns="http://www.w3.org/2000/svg">
<g filter="url(#filter0_i_1137_401)">
<path fill-rule="evenodd" clip-rule="evenodd" d="M5.38214 50.075C-1.04478 43.6481 -1.04478 33.228 5.38214 26.8011L27.3631 4.82019C33.79 -1.60673 44.2101 -1.60673 50.637 4.82019L72.6179 26.8011C79.0448 33.228 79.0448 43.6481 72.6179 50.075L64.8218 57.8711C63.7507 58.9422 62.014 58.9422 60.9429 57.8711C59.8717 56.7999 59.8717 55.0632 60.9429 53.9921L68.7389 46.196C73.0235 41.9114 73.0235 34.9647 68.7389 30.6801L46.758 8.69917C42.4734 4.41456 35.5266 4.41456 31.242 8.69917L9.26112 30.6801C4.97651 34.9647 4.97651 41.9114 9.26112 46.196L31.242 68.1769C35.5266 72.4616 42.4734 72.4616 46.758 68.1769L51.1299 63.8051C52.201 62.7339 53.9377 62.7339 55.0088 63.8051C56.08 64.8762 56.08 66.6129 55.0088 67.6841L50.637 72.0559C44.2101 78.4828 33.79 78.4828 27.3631 72.0559L5.38214 50.075Z" fill="white" fill-opacity="0.5"/>
<path fill-rule="evenodd" clip-rule="evenodd" d="M5.38214 50.075C-1.04478 43.6481 -1.04478 33.228 5.38214 26.8011L27.3631 4.82019C33.79 -1.60673 44.2101 -1.60673 50.637 4.82019L72.6179 26.8011C79.0448 33.228 79.0448 43.6481 72.6179 50.075L64.8218 57.8711C63.7507 58.9422 62.014 58.9422 60.9429 57.8711C59.8717 56.7999 59.8717 55.0632 60.9429 53.9921L68.7389 46.196C73.0235 41.9114 73.0235 34.9647 68.7389 30.6801L46.758 8.69917C42.4734 4.41456 35.5266 4.41456 31.242 8.69917L9.26112 30.6801C4.97651 34.9647 4.97651 41.9114 9.26112 46.196L31.242 68.1769C35.5266 72.4616 42.4734 72.4616 46.758 68.1769L51.1299 63.8051C52.201 62.7339 53.9377 62.7339 55.0088 63.8051C56.08 64.8762 56.08 66.6129 55.0088 67.6841L50.637 72.0559C44.2101 78.4828 33.79 78.4828 27.3631 72.0559L5.38214 50.075Z" fill="url(#paint0_linear_1137_401)"/>
<path d="M24.7452 38.1832C24.7452 36.5264 26.0883 35.1832 27.7452 35.1832H49.7452C51.402 35.1832 52.7452 36.5264 52.7452 38.1832C52.7452 39.8401 51.402 41.1832 49.7452 41.1832H27.7452C26.0883 41.1832 24.7452 39.8401 24.7452 38.1832Z" fill="white" fill-opacity="0.5"/>
<path d="M24.7452 38.1832C24.7452 36.5264 26.0883 35.1832 27.7452 35.1832H49.7452C51.402 35.1832 52.7452 36.5264 52.7452 38.1832C52.7452 39.8401 51.402 41.1832 49.7452 41.1832H27.7452C26.0883 41.1832 24.7452 39.8401 24.7452 38.1832Z" fill="url(#paint1_linear_1137_401)"/>
<path d="M38.7452 52.1832C37.0883 52.1832 35.7452 50.8401 35.7452 49.1832V27.1832C35.7452 25.5264 37.0883 24.1832 38.7452 24.1832C40.402 24.1832 41.7452 25.5264 41.7452 27.1832V49.1832C41.7452 50.8401 40.402 52.1832 38.7452 52.1832Z" fill="white" fill-opacity="0.5"/>
<path d="M38.7452 52.1832C37.0883 52.1832 35.7452 50.8401 35.7452 49.1832V27.1832C35.7452 25.5264 37.0883 24.1832 38.7452 24.1832C40.402 24.1832 41.7452 25.5264 41.7452 27.1832V49.1832C41.7452 50.8401 40.402 52.1832 38.7452 52.1832Z" fill="url(#paint2_linear_1137_401)"/>
</g>
<defs>
<filter id="filter0_i_1137_401" x="0.561951" y="-1" width="76.8761" height="77.8761" filterUnits="userSpaceOnUse" color-interpolation-filters="sRGB">
<feFlood flood-opacity="0" result="BackgroundImageFix"/>
<feBlend mode="normal" in="SourceGraphic" in2="BackgroundImageFix" result="shape"/>
<feColorMatrix in="SourceAlpha" type="matrix" values="0 0 0 0 0 0 0 0 0 0 0 0 0 0 0 0 0 0 127 0" result="hardAlpha"/>
<feOffset dy="-1"/>
<feGaussianBlur stdDeviation="1"/>
<feComposite in2="hardAlpha" operator="arithmetic" k2="-1" k3="1"/>
<feColorMatrix type="matrix" values="0 0 0 0 1 0 0 0 0 0 0 0 0 0 0 0 0 0 0.75 0"/>
<feBlend mode="color-dodge" in2="shape" result="effect1_innerShadow_1137_401"/>
</filter>
<linearGradient id="paint0_linear_1137_401" x1="77.9183" y1="-15.6144" x2="77.9183" y2="96.0945" gradientUnits="userSpaceOnUse">
<stop stop-color="#CE4242"/>
<stop offset="1" stop-color="#527FE1"/>
</linearGradient>
<linearGradient id="paint1_linear_1137_401" x1="77.9183" y1="-15.6144" x2="77.9183" y2="96.0945" gradientUnits="userSpaceOnUse">
<stop stop-color="#CE4242"/>
<stop offset="1" stop-color="#527FE1"/>
</linearGradient>
<linearGradient id="paint2_linear_1137_401" x1="77.9183" y1="-15.6144" x2="77.9183" y2="96.0945" gradientUnits="userSpaceOnUse">
<stop stop-color="#CE4242"/>
<stop offset="1" stop-color="#527FE1"/>
</linearGradient>
</defs>
</svg>
