<svg width="18" height="17" viewBox="0 0 18 17" fill="none" xmlns="http://www.w3.org/2000/svg">
<path d="M17.0261 11.709H5.39526L5.97925 10.5195L15.6824 10.502C16.0105 10.502 16.2917 10.2676 16.3503 9.94336L17.6941 2.42187C17.7292 2.22461 17.6765 2.02148 17.5476 1.86719C17.4839 1.79125 17.4044 1.73008 17.3147 1.68792C17.225 1.64577 17.1272 1.62363 17.0281 1.62305L4.68433 1.58203L4.57886 1.08594C4.51245 0.769531 4.22729 0.539062 3.90308 0.539062H0.885498C0.702644 0.539063 0.527279 0.611701 0.397981 0.740999C0.268684 0.870296 0.196045 1.04566 0.196045 1.22852C0.196045 1.41137 0.268684 1.58674 0.397981 1.71603C0.527279 1.84533 0.702644 1.91797 0.885498 1.91797H3.34448L3.80542 4.10937L4.94019 9.60352L3.47925 11.9883C3.40338 12.0907 3.35768 12.2123 3.34733 12.3393C3.33697 12.4663 3.36237 12.5937 3.42065 12.707C3.53784 12.9395 3.77417 13.0859 4.03589 13.0859H5.26245C5.00096 13.4332 4.85972 13.8563 4.86011 14.291C4.86011 15.3965 5.75854 16.2949 6.86401 16.2949C7.96948 16.2949 8.86792 15.3965 8.86792 14.291C8.86792 13.8555 8.72339 13.4316 8.46558 13.0859H11.6121C11.3506 13.4332 11.2093 13.8563 11.2097 14.291C11.2097 15.3965 12.1082 16.2949 13.2136 16.2949C14.3191 16.2949 15.2175 15.3965 15.2175 14.291C15.2175 13.8555 15.073 13.4316 14.8152 13.0859H17.0281C17.407 13.0859 17.7175 12.7773 17.7175 12.3965C17.7164 12.2138 17.6431 12.039 17.5135 11.9102C17.384 11.7814 17.2088 11.7091 17.0261 11.709ZM4.97144 2.94141L16.2175 2.97852L15.116 9.14648L6.28198 9.16211L4.97144 2.94141ZM6.86401 14.9082C6.52417 14.9082 6.24683 14.6309 6.24683 14.291C6.24683 13.9512 6.52417 13.6738 6.86401 13.6738C7.20386 13.6738 7.4812 13.9512 7.4812 14.291C7.4812 14.4547 7.41618 14.6117 7.30043 14.7274C7.18469 14.8432 7.0277 14.9082 6.86401 14.9082ZM13.2136 14.9082C12.8738 14.9082 12.5964 14.6309 12.5964 14.291C12.5964 13.9512 12.8738 13.6738 13.2136 13.6738C13.5535 13.6738 13.8308 13.9512 13.8308 14.291C13.8308 14.4547 13.7658 14.6117 13.65 14.7274C13.5343 14.8432 13.3773 14.9082 13.2136 14.9082Z" fill="white"/>
</svg>
