<svg width="25" height="25" viewBox="0 0 25 25" fill="none" xmlns="http://www.w3.org/2000/svg">
<g clip-path="url(#clip0_86_962)">
<mask id="path-1-inside-1_86_962" fill="white">
<path d="M19.5 0.607666H5.5C4.1744 0.609254 2.90356 1.13655 1.96622 2.07389C1.02888 3.01122 0.501588 4.28207 0.5 5.60767L0.5 19.6077C0.501588 20.9333 1.02888 22.2041 1.96622 23.1414C2.90356 24.0788 4.1744 24.6061 5.5 24.6077H19.5C20.8256 24.6061 22.0964 24.0788 23.0338 23.1414C23.9711 22.2041 24.4984 20.9333 24.5 19.6077V5.60767C24.4984 4.28207 23.9711 3.01122 23.0338 2.07389C22.0964 1.13655 20.8256 0.609254 19.5 0.607666V0.607666ZM22.5 19.6077C22.5 20.4033 22.1839 21.1664 21.6213 21.729C21.0587 22.2916 20.2956 22.6077 19.5 22.6077H5.5C4.70435 22.6077 3.94129 22.2916 3.37868 21.729C2.81607 21.1664 2.5 20.4033 2.5 19.6077V5.60767C2.5 4.81202 2.81607 4.04895 3.37868 3.48635C3.94129 2.92374 4.70435 2.60767 5.5 2.60767H19.5C20.2956 2.60767 21.0587 2.92374 21.6213 3.48635C22.1839 4.04895 22.5 4.81202 22.5 5.60767V19.6077Z"/>
</mask>
<path d="M19.5 0.607666V7.60767H26.5V0.607666H19.5ZM5.5 0.607666V-6.39234L5.49162 -6.39233L5.5 0.607666ZM0.5 5.60767L-6.5 5.59928V5.60767H0.5ZM0.5 19.6077H-6.50001L-6.49999 19.6161L0.5 19.6077ZM5.5 24.6077L5.49162 31.6077H5.5V24.6077ZM19.5 24.6077V31.6077L19.5084 31.6077L19.5 24.6077ZM24.5 19.6077L31.5 19.6161V19.6077H24.5ZM24.5 5.60767H31.5L31.5 5.59928L24.5 5.60767ZM19.5 0.607666L19.5084 -6.39233L12.5 -6.40072V0.607666H19.5ZM22.5 19.6077H29.5H22.5ZM19.5 22.6077V29.6077V22.6077ZM5.5 22.6077V29.6077V22.6077ZM2.5 19.6077H-4.5H2.5ZM2.5 5.60767H-4.5H2.5ZM5.5 2.60767V-4.39233V2.60767ZM22.5 5.60767H29.5H22.5ZM19.5 -6.39233H5.5V7.60767H19.5V-6.39233ZM5.49162 -6.39233C2.31241 -6.38852 -0.735489 -5.1239 -2.98353 -2.87586L6.91597 7.02363C6.54261 7.397 6.0364 7.60703 5.50838 7.60766L5.49162 -6.39233ZM-2.98353 -2.87586C-5.23157 -0.627823 -6.49619 2.42008 -6.49999 5.59928L7.49999 5.61605C7.49936 6.14406 7.28933 6.65027 6.91597 7.02363L-2.98353 -2.87586ZM-6.5 5.60767V19.6077H7.5V5.60767H-6.5ZM-6.49999 19.6161C-6.49619 22.7953 -5.23157 25.8432 -2.98353 28.0912L6.91597 18.1917C7.28933 18.5651 7.49936 19.0713 7.49999 19.5993L-6.49999 19.6161ZM-2.98353 28.0912C-0.735487 30.3392 2.31241 31.6039 5.49162 31.6077L5.50838 17.6077C6.0364 17.6083 6.5426 17.8183 6.91597 18.1917L-2.98353 28.0912ZM5.5 31.6077H19.5V17.6077H5.5V31.6077ZM19.5084 31.6077C22.6876 31.6039 25.7355 30.3392 27.9835 28.0912L18.084 18.1917C18.4574 17.8183 18.9636 17.6083 19.4916 17.6077L19.5084 31.6077ZM27.9835 28.0912C30.2316 25.8432 31.4962 22.7952 31.5 19.6161L17.5 19.5993C17.5006 19.0713 17.7107 18.5651 18.084 18.1917L27.9835 28.0912ZM31.5 19.6077V5.60767H17.5V19.6077H31.5ZM31.5 5.59928C31.4962 2.42008 30.2316 -0.627821 27.9835 -2.87586L18.084 7.02363C17.7107 6.65027 17.5006 6.14406 17.5 5.61605L31.5 5.59928ZM27.9835 -2.87586C25.7355 -5.1239 22.6876 -6.38852 19.5084 -6.39233L19.4916 7.60766C18.9636 7.60703 18.4574 7.397 18.084 7.02363L27.9835 -2.87586ZM12.5 0.607666V0.607666H26.5V0.607666H12.5ZM15.5 19.6077C15.5 18.5468 15.9214 17.5294 16.6716 16.7792L26.5711 26.6787C28.4464 24.8034 29.5 22.2598 29.5 19.6077H15.5ZM16.6716 16.7792C17.4217 16.0291 18.4391 15.6077 19.5 15.6077V29.6077C22.1522 29.6077 24.6957 28.5541 26.5711 26.6787L16.6716 16.7792ZM19.5 15.6077H5.5V29.6077H19.5V15.6077ZM5.5 15.6077C6.56086 15.6077 7.57828 16.0291 8.32843 16.7792L-1.57107 26.6787C0.304298 28.5541 2.84784 29.6077 5.5 29.6077V15.6077ZM8.32843 16.7792C9.07857 17.5294 9.5 18.5468 9.5 19.6077H-4.5C-4.5 22.2598 -3.44643 24.8034 -1.57107 26.6787L8.32843 16.7792ZM9.5 19.6077V5.60767H-4.5V19.6077H9.5ZM9.5 5.60767C9.5 6.66853 9.07857 7.68595 8.32843 8.43609L-1.57107 -1.4634C-3.44643 0.411962 -4.5 2.9555 -4.5 5.60767H9.5ZM8.32843 8.43609C7.57828 9.18624 6.56087 9.60767 5.5 9.60767V-4.39233C2.84783 -4.39233 0.304295 -3.33876 -1.57107 -1.4634L8.32843 8.43609ZM5.5 9.60767H19.5V-4.39233H5.5V9.60767ZM19.5 9.60767C18.4391 9.60767 17.4217 9.18624 16.6716 8.43609L26.5711 -1.4634C24.6957 -3.33877 22.1522 -4.39233 19.5 -4.39233V9.60767ZM16.6716 8.43609C15.9214 7.68595 15.5 6.66853 15.5 5.60767H29.5C29.5 2.9555 28.4464 0.411964 26.5711 -1.4634L16.6716 8.43609ZM15.5 5.60767V19.6077H29.5V5.60767H15.5Z" fill="url(#paint0_angular_86_962)" mask="url(#path-1-inside-1_86_962)"/>
</g>
<defs>
<radialGradient id="paint0_angular_86_962" cx="0" cy="0" r="1" gradientUnits="userSpaceOnUse" gradientTransform="translate(12.5 12.6077) rotate(-180) scale(28 38.3158)">
<stop stop-color="#CE4242"/>
<stop offset="0.505208" stop-color="#7E69A9" stop-opacity="0.82"/>
<stop offset="1" stop-color="#527FE1" stop-opacity="1"/>
</radialGradient>
<clipPath id="clip0_86_962">
<rect width="24" height="24" fill="white" transform="translate(0.5 0.607666)"/>
</clipPath>
</defs>
</svg>
