<svg width="18" height="18" viewBox="0 0 18 18" fill="none" xmlns="http://www.w3.org/2000/svg">
<path d="M9.18986 0.600371C6.21134 0.592559 3.59025 2.13357 2.0922 4.4617C2.02579 4.56522 2.10001 4.70193 2.22306 4.70193H3.59611C3.68986 4.70193 3.77775 4.66092 3.83634 4.58865C3.97306 4.42264 4.11954 4.26248 4.27384 4.11014C4.91056 3.47537 5.65079 2.97537 6.47501 2.62772C7.32658 2.26834 8.23283 2.08475 9.16837 2.08475C10.1039 2.08475 11.0102 2.26639 11.8617 2.62772C12.686 2.97537 13.4262 3.47537 14.0629 4.11014C14.6996 4.7449 15.1977 5.48514 15.5473 6.3074C15.9086 7.15897 16.0902 8.06326 16.0902 8.99881C16.0902 9.93436 15.9067 10.8387 15.5473 11.6902C15.1996 12.5125 14.6996 13.2527 14.0629 13.8875C13.4262 14.5222 12.686 15.0222 11.8617 15.3699C11.0095 15.7299 10.0935 15.9145 9.16837 15.9129C8.23283 15.9129 7.32658 15.7293 6.47501 15.3699C5.65241 15.0226 4.90491 14.5192 4.27384 13.8875C4.11954 13.7332 3.97501 13.573 3.83634 13.409C3.77775 13.3367 3.6879 13.2957 3.59611 13.2957H2.22306C2.10001 13.2957 2.02384 13.4324 2.0922 13.5359C3.58829 15.8582 6.19767 17.3972 9.16837 17.3972C13.7817 17.3972 17.5277 13.6844 17.5746 9.08475C17.6215 4.41092 13.8695 0.61209 9.18986 0.600371ZM6.71564 11.1863V9.70193H0.582825C0.496887 9.70193 0.426575 9.63162 0.426575 9.54568V8.45193C0.426575 8.366 0.496887 8.29568 0.582825 8.29568H6.71564V6.81131C6.71564 6.68045 6.86798 6.60623 6.96954 6.68826L9.74103 8.87576C9.7597 8.89038 9.77481 8.90905 9.78519 8.93037C9.79558 8.95169 9.80098 8.97509 9.80098 8.99881C9.80098 9.02252 9.79558 9.04593 9.78519 9.06725C9.77481 9.08856 9.7597 9.10724 9.74103 9.12186L6.96954 11.3094C6.86798 11.3894 6.71564 11.3172 6.71564 11.1863Z" fill="#DBDBDB"/>
</svg>
