<svg width="18" height="18" viewBox="0 0 18 18" fill="none" xmlns="http://www.w3.org/2000/svg">
<path d="M15.2572 12.8661H14.0215C13.9371 12.8661 13.858 12.903 13.8053 12.9681C13.6822 13.1175 13.5504 13.2616 13.4115 13.3987C12.8436 13.9673 12.1708 14.4203 11.4305 14.7329C10.6635 15.0569 9.83907 15.2231 9.00645 15.2216C8.16445 15.2216 7.34883 15.0564 6.58242 14.7329C5.84208 14.4203 5.16933 13.9673 4.60137 13.3987C4.03239 12.8321 3.5787 12.1605 3.26543 11.4212C2.94024 10.6548 2.77676 9.84092 2.77676 8.99893C2.77676 8.15694 2.94199 7.34307 3.26543 6.57666C3.57832 5.83662 4.02832 5.17041 4.60137 4.59912C5.17441 4.02783 5.84063 3.57783 6.58242 3.26494C7.34883 2.94151 8.16445 2.77627 9.00645 2.77627C9.84844 2.77627 10.6641 2.93975 11.4305 3.26494C12.1723 3.57783 12.8385 4.02783 13.4115 4.59912C13.5504 4.73799 13.6805 4.88213 13.8053 5.02979C13.858 5.09483 13.9389 5.13174 14.0215 5.13174H15.2572C15.368 5.13174 15.4365 5.00869 15.375 4.91553C14.0268 2.82022 11.6678 1.4333 8.98711 1.44033C4.77539 1.45088 1.39863 4.86983 1.44082 9.07627C1.48301 13.2159 4.85449 16.5575 9.00645 16.5575C11.6801 16.5575 14.0285 15.1724 15.375 13.0823C15.4348 12.9892 15.368 12.8661 15.2572 12.8661ZM16.8199 8.88819L14.3256 6.91944C14.2324 6.84561 14.0971 6.9124 14.0971 7.03018V8.36612H8.57754C8.5002 8.36612 8.43692 8.4294 8.43692 8.50674V9.49112C8.43692 9.56846 8.5002 9.63174 8.57754 9.63174H14.0971V10.9677C14.0971 11.0855 14.2342 11.1522 14.3256 11.0784L16.8199 9.10967C16.8367 9.09652 16.8503 9.07971 16.8597 9.06052C16.869 9.04133 16.8739 9.02027 16.8739 8.99893C16.8739 8.97758 16.869 8.95652 16.8597 8.93733C16.8503 8.91815 16.8367 8.90134 16.8199 8.88819Z" fill="white"/>
</svg>
