<svg width="74" height="34" viewBox="0 0 74 34" fill="none" xmlns="http://www.w3.org/2000/svg">
<path d="M21.5304 14.8442L15.9074 10.2582C15.6741 10.0861 15.3686 9.99374 15.0542 10.0003C14.7398 10.0069 14.4405 10.1119 14.2183 10.2936C13.9961 10.4754 13.8681 10.7198 13.8607 10.9765C13.8533 11.2331 13.9671 11.4822 14.1785 11.6722L19.7978 16.2582C20.0275 16.4458 20.1565 16.7001 20.1565 16.9652C20.1565 17.2304 20.0275 17.4847 19.7978 17.6722L14.1785 22.2582C13.9488 22.4459 13.8198 22.7003 13.8199 22.9656C13.82 23.2309 13.9492 23.4852 14.1791 23.6727C14.4091 23.8603 14.7208 23.9655 15.0459 23.9654C15.3709 23.9654 15.6826 23.8599 15.9123 23.6722L21.5304 19.0862C22.2195 18.5237 22.6066 17.7607 22.6066 16.9652C22.6066 16.1698 22.2195 15.4068 21.5304 14.8442Z" fill="white" fill-opacity="0.08"/>
<path d="M40.3171 14.8442L34.6942 10.2582C34.4609 10.0861 34.1554 9.99374 33.841 10.0003C33.5265 10.0069 33.2272 10.1119 33.0051 10.2936C32.7829 10.4754 32.6548 10.7198 32.6474 10.9765C32.64 11.2331 32.7538 11.4822 32.9653 11.6722L38.5845 16.2582C38.8142 16.4458 38.9433 16.7001 38.9433 16.9652C38.9433 17.2304 38.8142 17.4847 38.5845 17.6722L32.9653 22.2582C32.7355 22.4459 32.6065 22.7003 32.6066 22.9656C32.6067 23.2309 32.736 23.4852 32.9659 23.6727C33.1958 23.8603 33.5076 23.9655 33.8326 23.9654C34.1577 23.9654 34.4693 23.8599 34.6991 23.6722L40.3171 19.0862C41.0062 18.5237 41.3934 17.7607 41.3934 16.9652C41.3934 16.1698 41.0062 15.4068 40.3171 14.8442Z" fill="white" fill-opacity="0.15"/>
<path d="M59.1039 14.8442L53.4809 10.2582C53.2476 10.0861 52.9421 9.99374 52.6277 10.0003C52.3133 10.0069 52.014 10.1119 51.7918 10.2936C51.5696 10.4754 51.4416 10.7198 51.4342 10.9765C51.4268 11.2331 51.5406 11.4822 51.752 11.6722L57.3713 16.2582C57.601 16.4458 57.73 16.7001 57.73 16.9652C57.73 17.2304 57.601 17.4847 57.3713 17.6722L51.752 22.2582C51.5223 22.4459 51.3933 22.7003 51.3934 22.9656C51.3935 23.2309 51.5227 23.4852 51.7526 23.6727C51.9826 23.8603 52.2943 23.9655 52.6194 23.9654C52.9444 23.9654 53.2561 23.8599 53.4858 23.6722L59.1039 19.0862C59.793 18.5237 60.1801 17.7607 60.1801 16.9652C60.1801 16.1698 59.793 15.4068 59.1039 14.8442Z" fill="white" fill-opacity="0.25"/>
</svg>
