<svg width="14" height="14" viewBox="0 0 14 14" fill="none" xmlns="http://www.w3.org/2000/svg">
<path d="M13 1C12.8125 0.81253 12.5582 0.707214 12.293 0.707214C12.0278 0.707214 11.7735 0.81253 11.586 1L7 5.586L2.414 1C2.22647 0.81253 1.97216 0.707214 1.707 0.707214C1.44184 0.707214 1.18753 0.81253 1 1C0.81253 1.18753 0.707214 1.44184 0.707214 1.707C0.707214 1.97216 0.81253 2.22647 1 2.414L5.586 7L1 11.586C0.81253 11.7735 0.707214 12.0278 0.707214 12.293C0.707214 12.5582 0.81253 12.8125 1 13C1.18753 13.1875 1.44184 13.2928 1.707 13.2928C1.97216 13.2928 2.22647 13.1875 2.414 13L7 8.414L11.586 13C11.7735 13.1875 12.0278 13.2928 12.293 13.2928C12.5582 13.2928 12.8125 13.1875 13 13C13.1875 12.8125 13.2928 12.5582 13.2928 12.293C13.2928 12.0278 13.1875 11.7735 13 11.586L8.414 7L13 2.414C13.1875 2.22647 13.2928 1.97216 13.2928 1.707C13.2928 1.44184 13.1875 1.18753 13 1Z" fill="white"/>
</svg>
