<svg width="20" height="20" viewBox="0 0 20 20" fill="none" xmlns="http://www.w3.org/2000/svg">
<path d="M13.7459 -1.71661e-05C15.2545 0.00094986 16.7118 0.547501 17.8489 1.53878C18.986 2.53007 19.7262 3.89918 19.933 5.39349C20.1397 6.8878 19.799 8.40646 18.9737 9.66923C18.1484 10.932 16.8942 11.8537 15.4426 12.2642C14.3875 12.5663 13.2707 12.5801 12.2084 12.3042L5.61843 18.8925C5.26859 19.2447 4.85228 19.524 4.39366 19.7142C3.93504 19.9043 3.44323 20.0014 2.94676 20C2.16546 19.9993 1.41635 19.6887 0.863888 19.1362C0.311424 18.5837 0.000761032 17.8346 9.72748e-05 17.0533C-0.001194 16.5568 0.0959454 16.065 0.285898 15.6063C0.475851 15.1476 0.75485 14.731 1.10676 14.3808L1.66677 13.8208C1.98011 13.5096 2.40348 13.3345 2.8451 13.3333H4.16677L4.16677 12.5C4.16677 12.058 4.34236 11.634 4.65492 11.3215C4.96748 11.0089 5.3914 10.8333 5.83343 10.8333H6.66677V9.51165C6.66617 9.2927 6.70903 9.07582 6.79285 8.87355C6.87668 8.67128 6.9998 8.48766 7.1551 8.33332L7.69676 7.79165C7.4193 6.7299 7.43283 5.61303 7.73593 4.55832C8.077 3.35665 8.76901 2.28414 9.72332 1.47814C10.6776 0.672144 11.8508 0.169352 13.0926 0.0341511C13.3096 0.0115929 13.5277 0.000188828 13.7459 -1.71661e-05ZM13.7459 10.8333C14.5991 10.8341 15.4356 10.5968 16.1613 10.148C16.8869 9.69919 17.4729 9.05676 17.8532 8.293C18.2335 7.52924 18.3931 6.67449 18.314 5.82495C18.2348 4.97542 17.9202 4.16484 17.4053 3.48445C16.8905 2.80406 16.196 2.28088 15.4 1.9738C14.6039 1.66672 13.738 1.58793 12.8996 1.7463C12.0612 1.90468 11.2837 2.29392 10.6545 2.87023C10.0254 3.44653 9.56957 4.18701 9.33843 5.00832C9.07844 5.9112 9.10758 6.87283 9.42177 7.75832C9.47304 7.9062 9.48163 8.06553 9.44656 8.21807C9.41148 8.37061 9.33415 8.51019 9.22343 8.62082L8.33343 9.51165V10.8333C8.33343 11.2753 8.15784 11.6993 7.84528 12.0118C7.53271 12.3244 7.10879 12.5 6.66677 12.5H5.83343L5.83343 13.3333C5.83343 13.7753 5.65784 14.1993 5.34528 14.5118C5.03272 14.8244 4.60879 15 4.16677 15H2.8451L2.2851 15.56C2.08847 15.7557 1.93258 15.9884 1.82644 16.2448C1.72031 16.5011 1.66604 16.7759 1.66677 17.0533C1.66698 17.3926 1.8018 17.7179 2.04162 17.9579C2.28144 18.1979 2.60667 18.3329 2.94593 18.3333C3.22355 18.334 3.49854 18.2796 3.75501 18.1734C4.01148 18.0671 4.24433 17.911 4.4401 17.7142L11.3826 10.7725C11.4934 10.6617 11.6332 10.5845 11.7859 10.5496C11.9386 10.5146 12.098 10.5234 12.2459 10.575C12.7292 10.7451 13.2377 10.8325 13.7501 10.8333H13.7459ZM15.8334 4.99998C15.8334 4.83517 15.7846 4.67405 15.693 4.53701C15.6014 4.39997 15.4713 4.29316 15.319 4.23008C15.1667 4.16701 14.9992 4.15051 14.8375 4.18266C14.6759 4.21482 14.5274 4.29418 14.4108 4.41073C14.2943 4.52727 14.2149 4.67576 14.1828 4.83741C14.1506 4.99906 14.1671 5.16661 14.2302 5.31889C14.2933 5.47116 14.4001 5.60131 14.5371 5.69288C14.6742 5.78444 14.8353 5.83332 15.0001 5.83332C15.2211 5.83332 15.4331 5.74552 15.5894 5.58924C15.7456 5.43296 15.8334 5.221 15.8334 4.99998Z" fill="white"/>
</svg>
