<svg width="166" height="88" viewBox="0 0 166 88" fill="none" xmlns="http://www.w3.org/2000/svg">
<rect x="114.125" y="12.5" width="62" height="62" rx="9.5" transform="rotate(90 114.125 12.5)" fill="#0F171E"/>
<rect x="114.125" y="12.5" width="62" height="62" rx="9.5" transform="rotate(90 114.125 12.5)" stroke="white" stroke-opacity="0.5"/>
<rect x="114.125" y="12.5" width="62" height="62" rx="9.5" transform="rotate(90 114.125 12.5)" stroke="url(#paint0_linear_205_1840)"/>
<path d="M165.729 10.4187C164.773 14.0871 161.458 16.6452 157.667 16.6395C153.878 16.6252 150.576 14.0577 149.629 10.3895H146.281L138.573 21.9624C138.185 22.5437 137.532 22.8916 136.833 22.8895H130.583V18.7228H135.719L143.427 7.1499C143.815 6.56865 144.468 6.22074 145.167 6.22282H149.629C150.788 1.77698 155.331 -0.887865 159.777 0.27099C164.223 1.42984 166.888 5.97282 165.729 10.4187ZM157.667 4.13948C155.365 4.13948 153.5 6.00485 153.5 8.30615C153.5 10.6075 155.365 12.4728 157.667 12.4728C159.968 12.4728 161.833 10.6075 161.833 8.30615C161.833 6.00485 159.968 4.13948 157.667 4.13948Z" fill="url(#paint1_linear_205_1840)"/>
<path d="M165.729 81.252C164.773 84.9205 161.458 87.4786 157.667 87.4729C153.879 87.4585 150.576 84.8911 149.629 81.2229H145.167C144.27 81.2231 143.473 80.6489 143.19 79.7979L139.498 68.7228H134.75V64.5562H141C141.897 64.5559 142.694 65.1301 142.977 65.9812L146.669 77.0562H149.629C150.788 72.6104 155.331 69.9455 159.777 71.1044C164.223 72.263 166.888 76.8062 165.729 81.252ZM157.667 74.9728C155.366 74.9728 153.5 76.8382 153.5 79.1395C153.5 81.4408 155.366 83.3062 157.667 83.3062C159.968 83.3062 161.834 81.4408 161.834 79.1395C161.834 76.8382 159.968 74.9728 157.667 74.9728Z" fill="url(#paint2_linear_205_1840)"/>
<path d="M126.417 22.8895H122.25V18.7228H126.417V22.8895Z" fill="url(#paint3_linear_205_1840)"/>
<path d="M130.584 68.7228H126.417V64.5562H130.584V68.7228Z" fill="url(#paint4_linear_205_1840)"/>
<path d="M165.729 35.4186C164.773 39.0871 161.458 41.6452 157.667 41.6395C153.879 41.6251 150.576 39.0577 149.629 35.3895H136.161L132.827 43.7228L136.161 52.0561H141.296C142.447 47.5999 146.992 44.9202 151.448 46.0707C155.904 47.2212 158.584 51.7665 157.434 56.2228C156.283 60.6791 151.738 63.3587 147.281 62.2082C144.346 61.4504 142.054 59.1582 141.296 56.2228H134.75C133.898 56.2236 133.132 55.7054 132.815 54.9145L129.173 45.8061H122.25V41.6395H129.173L132.815 32.5311C133.132 31.7402 133.898 31.2223 134.75 31.2228L149.629 31.2228C150.788 26.777 155.331 24.1121 159.777 25.271C164.223 26.4298 166.888 30.9728 165.729 35.4186ZM149.334 58.3061C151.635 58.3061 153.5 56.4408 153.5 54.1395C153.5 51.8382 151.635 49.9728 149.334 49.9728C147.032 49.9728 145.167 51.8382 145.167 54.1395C145.167 56.4408 147.032 58.3061 149.334 58.3061ZM157.667 29.1395C155.366 29.1395 153.5 31.0048 153.5 33.3061C153.5 35.6074 155.366 37.4728 157.667 37.4728C159.968 37.4728 161.834 35.6074 161.834 33.3061C161.834 31.0048 159.968 29.1395 157.667 29.1395Z" fill="url(#paint5_linear_205_1840)"/>
<path fill-rule="evenodd" clip-rule="evenodd" d="M118.625 69V18C118.625 12.4772 114.148 8 108.625 8L57.6251 8C52.1023 8 47.6251 12.4772 47.6251 18V69C47.6251 74.5229 52.1023 79 57.6251 79H108.625C114.148 79 118.625 74.5228 118.625 69ZM122.625 18C122.625 10.268 116.357 4 108.625 4L57.6251 4C49.8931 4 43.6251 10.268 43.6251 18V69C43.6251 76.732 49.8931 83 57.6251 83H108.625C116.357 83 122.625 76.732 122.625 69V18Z" fill="url(#paint6_linear_205_1840)"/>
<path d="M29.5001 64.5563C28.8037 64.5563 28.1532 64.9039 27.7667 65.4833L20.0521 77.0562H16.7042C15.5456 72.6104 11.0021 69.9456 6.5563 71.1044C2.11047 72.2633 -0.554108 76.8062 0.604492 81.2521C1.56049 84.9206 4.87585 87.4786 8.66673 87.4729C12.455 87.4586 15.7571 84.8909 16.7042 81.2229H21.1667C21.8631 81.2229 22.5136 80.8753 22.9001 80.2958L30.6146 68.7229H35.7501V64.5563H29.5001ZM8.66673 83.3062C6.36543 83.3062 4.50006 81.4409 4.50006 79.1396C4.50006 76.8383 6.36543 74.9729 8.66673 74.9729C10.968 74.9729 12.8334 76.8383 12.8334 79.1396C12.8334 81.4409 10.968 83.3062 8.66673 83.3062Z" fill="url(#paint7_linear_205_1840)"/>
<path d="M28.7042 18.7229L23.0417 7.37502C22.687 6.66538 21.9602 6.21851 21.1667 6.22293H16.7042C15.5456 1.7771 11.0021 -0.887742 6.5563 0.271112C2.11047 1.42997 -0.554108 5.97293 0.604492 10.4188C1.56049 14.0873 4.87585 16.6453 8.66673 16.6396C12.455 16.6253 15.7571 14.0576 16.7042 10.3896H19.8792L25.5521 21.7375C25.905 22.4438 26.6272 22.8899 27.4167 22.8896H33.6667V18.7229H28.7042ZM8.66673 12.4729C6.36543 12.4729 4.50006 10.6076 4.50006 8.30627C4.50006 6.00496 6.36543 4.1396 8.66673 4.1396C10.968 4.1396 12.8334 6.00496 12.8334 8.30627C12.8334 10.6076 10.968 12.4729 8.66673 12.4729Z" fill="url(#paint8_linear_205_1840)"/>
<path d="M44.0833 64.5563H39.9166V68.7229H44.0833V64.5563Z" fill="url(#paint9_linear_205_1840)"/>
<path d="M42 18.7229H37.8333V22.8896H42V18.7229Z" fill="url(#paint10_linear_205_1840)"/>
<path d="M37.1605 41.6396L33.5188 32.5313C33.2019 31.7404 32.4355 31.2224 31.5834 31.2229H25.0376C23.887 26.7667 19.3417 24.087 14.8855 25.2375C10.4292 26.388 7.74953 30.9334 8.90005 35.3896C10.0506 39.8459 14.5959 42.5255 19.0521 41.375C21.9875 40.6172 24.2797 38.325 25.0376 35.3896H30.173L33.5063 43.7229L30.173 52.0563H16.7042C15.5456 47.6104 11.0021 44.9456 6.5563 46.1045C2.11047 47.2633 -0.554108 51.8063 0.604492 56.2521C1.56049 59.9206 4.87585 62.4787 8.66673 62.4729C12.455 62.4586 15.7571 59.8909 16.7042 56.2229H31.5834C32.4355 56.2237 33.2019 55.7055 33.5188 54.9146L37.1605 45.8063H44.0834V41.6396H37.1605ZM17.0001 37.4729C14.6988 37.4729 12.8334 35.6076 12.8334 33.3063C12.8334 31.005 14.6988 29.1396 17.0001 29.1396C19.3014 29.1396 21.1667 31.005 21.1667 33.3063C21.1667 35.6076 19.3014 37.4729 17.0001 37.4729ZM8.66673 58.3063C6.36543 58.3063 4.50006 56.4409 4.50006 54.1396C4.50006 51.8383 6.36543 49.9729 8.66673 49.9729C10.968 49.9729 12.8334 51.8383 12.8334 54.1396C12.8334 56.4409 10.968 58.3063 8.66673 58.3063Z" fill="url(#paint11_linear_205_1840)"/>
<path d="M65.6151 37.6213C65.6168 35.0561 66.5462 32.5779 68.2319 30.6443C69.9175 28.7106 72.2457 27.4518 74.7868 27.1003C77.3279 26.7488 79.9103 27.3281 82.0577 28.7316C84.205 30.135 85.7723 32.2677 86.4703 34.7362C86.9841 36.5304 87.0076 38.4295 86.5383 40.2358L97.7418 51.4421C98.3408 52.037 98.8158 52.745 99.139 53.5249C99.4623 54.3047 99.6275 55.1411 99.6251 55.9853C99.624 57.3139 99.0957 58.5878 98.1562 59.5272C97.2168 60.4667 95.9429 60.995 94.6143 60.9961C93.77 60.9983 92.9337 60.8331 92.1536 60.5101C91.3736 60.1871 90.6653 59.7126 90.0697 59.1142L89.1174 58.1619C88.5882 57.6291 88.2904 56.9092 88.2884 56.1582V53.9107H86.8714C86.1197 53.9107 85.3988 53.6121 84.8673 53.0806C84.3358 52.5491 84.0372 51.8282 84.0372 51.0765V49.6594H81.7897C81.4174 49.6605 81.0486 49.5876 80.7046 49.445C80.3607 49.3025 80.0484 49.0931 79.7859 48.829L78.8648 47.9079C77.0593 48.3798 75.1601 48.3568 73.3666 47.8413C71.3231 47.2613 69.4993 46.0846 68.1287 44.4618C66.7581 42.839 65.9031 40.844 65.6732 38.7323C65.6349 38.3632 65.6155 37.9924 65.6151 37.6213ZM84.0372 37.6213C84.0386 36.1705 83.635 34.748 82.8718 33.514C82.1086 32.2801 81.0162 31.2837 79.7174 30.637C78.4186 29.9902 76.9651 29.7189 75.5205 29.8534C74.0758 29.988 72.6975 30.5231 71.5405 31.3985C70.3835 32.274 69.4938 33.455 68.9716 34.8086C68.4494 36.1623 68.3154 37.6348 68.5847 39.0605C68.8541 40.4862 69.516 41.8084 70.496 42.8782C71.476 43.9481 72.7352 44.7232 74.1318 45.1163C75.6671 45.5584 77.3024 45.5089 78.8082 44.9746C79.0596 44.8874 79.3306 44.8728 79.59 44.9324C79.8494 44.9921 80.0867 45.1236 80.2748 45.3118L81.7897 46.8253H84.0372C84.7889 46.8253 85.5097 47.1239 86.0412 47.6554C86.5728 48.1869 86.8714 48.9078 86.8714 49.6594V51.0765H88.2884C89.0401 51.0765 89.761 51.3751 90.2925 51.9066C90.824 52.4381 91.1226 53.159 91.1226 53.9107V56.1582L92.0749 57.1105C92.4077 57.4448 92.8035 57.7099 93.2393 57.8904C93.6752 58.0709 94.1425 58.1632 94.6143 58.1619C95.1912 58.1616 95.7444 57.9323 96.1525 57.5245C96.5606 57.1167 96.7902 56.5636 96.7909 55.9867C96.7921 55.5146 96.6996 55.047 96.5189 54.6109C96.3382 54.1747 96.0728 53.7788 95.738 53.4459L83.9337 41.6402C83.7454 41.4518 83.6141 41.2141 83.5546 40.9544C83.4952 40.6948 83.5102 40.4236 83.5979 40.1721C83.8872 39.3503 84.0358 38.4855 84.0372 37.6142V37.6213ZM74.1176 34.0715C73.8373 34.0715 73.5634 34.1547 73.3303 34.3104C73.0973 34.4661 72.9157 34.6874 72.8084 34.9463C72.7011 35.2053 72.6731 35.4902 72.7278 35.7651C72.7824 36.04 72.9174 36.2925 73.1156 36.4907C73.3138 36.6888 73.5663 36.8238 73.8412 36.8785C74.116 36.9332 74.401 36.9051 74.6599 36.7978C74.9188 36.6906 75.1402 36.5089 75.2959 36.2759C75.4516 36.0429 75.5347 35.7689 75.5347 35.4886C75.5347 35.1128 75.3854 34.7523 75.1196 34.4866C74.8539 34.2208 74.4934 34.0715 74.1176 34.0715Z" fill="white"/>
<defs>
<linearGradient id="paint0_linear_205_1840" x1="108.221" y1="75" x2="182.2" y2="75" gradientUnits="userSpaceOnUse">
<stop stop-color="#CE4242"/>
<stop offset="1" stop-color="#527FE1"/>
</linearGradient>
<linearGradient id="paint1_linear_205_1840" x1="168.125" y1="109.5" x2="-11.3749" y2="19.5" gradientUnits="userSpaceOnUse">
<stop stop-color="#7D6CB4"/>
<stop offset="1" stop-color="#E0414C"/>
</linearGradient>
<linearGradient id="paint2_linear_205_1840" x1="168.125" y1="109.5" x2="-11.3749" y2="19.5" gradientUnits="userSpaceOnUse">
<stop stop-color="#7D6CB4"/>
<stop offset="1" stop-color="#E0414C"/>
</linearGradient>
<linearGradient id="paint3_linear_205_1840" x1="168.125" y1="109.5" x2="-11.3749" y2="19.5" gradientUnits="userSpaceOnUse">
<stop stop-color="#7D6CB4"/>
<stop offset="1" stop-color="#E0414C"/>
</linearGradient>
<linearGradient id="paint4_linear_205_1840" x1="168.125" y1="109.5" x2="-11.3749" y2="19.5" gradientUnits="userSpaceOnUse">
<stop stop-color="#7D6CB4"/>
<stop offset="1" stop-color="#E0414C"/>
</linearGradient>
<linearGradient id="paint5_linear_205_1840" x1="168.125" y1="109.5" x2="-11.3749" y2="19.5" gradientUnits="userSpaceOnUse">
<stop stop-color="#7D6CB4"/>
<stop offset="1" stop-color="#E0414C"/>
</linearGradient>
<linearGradient id="paint6_linear_205_1840" x1="168.125" y1="109.5" x2="-11.3749" y2="19.5" gradientUnits="userSpaceOnUse">
<stop stop-color="#7D6CB4"/>
<stop offset="1" stop-color="#E0414C"/>
</linearGradient>
<linearGradient id="paint7_linear_205_1840" x1="168.125" y1="109.5" x2="-11.3749" y2="19.5" gradientUnits="userSpaceOnUse">
<stop stop-color="#7D6CB4"/>
<stop offset="1" stop-color="#E0414C"/>
</linearGradient>
<linearGradient id="paint8_linear_205_1840" x1="168.125" y1="109.5" x2="-11.3749" y2="19.5" gradientUnits="userSpaceOnUse">
<stop stop-color="#7D6CB4"/>
<stop offset="1" stop-color="#E0414C"/>
</linearGradient>
<linearGradient id="paint9_linear_205_1840" x1="168.125" y1="109.5" x2="-11.3749" y2="19.5" gradientUnits="userSpaceOnUse">
<stop stop-color="#7D6CB4"/>
<stop offset="1" stop-color="#E0414C"/>
</linearGradient>
<linearGradient id="paint10_linear_205_1840" x1="168.125" y1="109.5" x2="-11.3749" y2="19.5" gradientUnits="userSpaceOnUse">
<stop stop-color="#7D6CB4"/>
<stop offset="1" stop-color="#E0414C"/>
</linearGradient>
<linearGradient id="paint11_linear_205_1840" x1="168.125" y1="109.5" x2="-11.3749" y2="19.5" gradientUnits="userSpaceOnUse">
<stop stop-color="#7D6CB4"/>
<stop offset="1" stop-color="#E0414C"/>
</linearGradient>
</defs>
</svg>
