<svg width="16" height="16" viewBox="0 0 16 16" fill="none" xmlns="http://www.w3.org/2000/svg">
<path d="M8 8C10.21 8 12 6.21 12 4C12 1.79 10.21 0 8 0C5.79 0 4 1.79 4 4C4 6.21 5.79 8 8 8ZM8 2C9.1 2 10 2.9 10 4C10 5.1 9.1 6 8 6C6.9 6 6 5.1 6 4C6 2.9 6.9 2 8 2ZM8 9C5.33 9 0 10.34 0 13V15C0 15.55 0.45 16 1 16H15C15.55 16 16 15.55 16 15V13C16 10.34 10.67 9 8 9ZM14 14H2V13.01C2.2 12.29 5.3 11 8 11C10.7 11 13.8 12.29 14 13V14Z" fill="white" fill-opacity="0.5"/>
<path d="M8 8C10.21 8 12 6.21 12 4C12 1.79 10.21 0 8 0C5.79 0 4 1.79 4 4C4 6.21 5.79 8 8 8ZM8 2C9.1 2 10 2.9 10 4C10 5.1 9.1 6 8 6C6.9 6 6 5.1 6 4C6 2.9 6.9 2 8 2ZM8 9C5.33 9 0 10.34 0 13V15C0 15.55 0.45 16 1 16H15C15.55 16 16 15.55 16 15V13C16 10.34 10.67 9 8 9ZM14 14H2V13.01C2.2 12.29 5.3 11 8 11C10.7 11 13.8 12.29 14 13V14Z" fill="url(#paint0_linear_286_459)"/>
<defs>
<linearGradient id="paint0_linear_286_459" x1="0.363534" y1="0.0693062" x2="13.0024" y2="22.5125" gradientUnits="userSpaceOnUse">
<stop stop-color="#CE4242"/>
<stop offset="1" stop-color="#527FE1"/>
</linearGradient>
</defs>
</svg>
