<svg width="16" height="16" viewBox="0 0 16 16" fill="none" xmlns="http://www.w3.org/2000/svg">
<g clip-path="url(#clip0_220_412)">
<path d="M8 0C6.41775 0 4.87103 0.469192 3.55544 1.34824C2.23985 2.22729 1.21447 3.47672 0.608967 4.93853C0.00346629 6.40034 -0.15496 8.00887 0.153721 9.56072C0.462403 11.1126 1.22433 12.538 2.34315 13.6569C3.46197 14.7757 4.88743 15.5376 6.43928 15.8463C7.99113 16.155 9.59966 15.9965 11.0615 15.391C12.5233 14.7855 13.7727 13.7602 14.6518 12.4446C15.5308 11.129 16 9.58225 16 8C15.9977 5.87897 15.1541 3.84547 13.6543 2.34568C12.1545 0.845885 10.121 0.00229405 8 0V0ZM8 14.6667C6.68146 14.6667 5.39253 14.2757 4.2962 13.5431C3.19987 12.8106 2.34539 11.7694 1.84081 10.5512C1.33622 9.33305 1.2042 7.9926 1.46144 6.6994C1.71867 5.40619 2.35361 4.2183 3.28596 3.28595C4.21831 2.3536 5.4062 1.71867 6.6994 1.46143C7.99261 1.2042 9.33305 1.33622 10.5512 1.8408C11.7694 2.34539 12.8106 3.19987 13.5431 4.2962C14.2757 5.39253 14.6667 6.68146 14.6667 8C14.6647 9.76751 13.9617 11.4621 12.7119 12.7119C11.4621 13.9617 9.76752 14.6647 8 14.6667V14.6667Z" fill="#CE4242"/>
<path d="M8.47792 3.37522C8.09347 3.30518 7.69833 3.32048 7.32045 3.42005C6.94257 3.51962 6.59119 3.70102 6.29118 3.95142C5.99117 4.20183 5.74986 4.5151 5.58433 4.86909C5.41879 5.22307 5.33308 5.60911 5.33325 5.99989C5.33325 6.1767 5.40349 6.34627 5.52851 6.47129C5.65354 6.59632 5.82311 6.66656 5.99992 6.66656C6.17673 6.66656 6.3463 6.59632 6.47132 6.47129C6.59635 6.34627 6.66659 6.1767 6.66659 5.99989C6.66642 5.80374 6.70953 5.60997 6.79285 5.43239C6.87616 5.25482 6.99763 5.09781 7.1486 4.97257C7.29956 4.84734 7.4763 4.75695 7.6662 4.70785C7.85611 4.65876 8.05451 4.65217 8.24725 4.68856C8.51061 4.73968 8.75275 4.86815 8.94275 5.05755C9.13275 5.24695 9.26197 5.48869 9.31392 5.75189C9.36638 6.02816 9.33016 6.31394 9.21042 6.56838C9.09069 6.82282 8.89357 7.03289 8.64725 7.16856C8.23936 7.40487 7.90231 7.74623 7.6712 8.15709C7.4401 8.56795 7.32339 9.03326 7.33325 9.50456V9.99989C7.33325 10.1767 7.40349 10.3463 7.52851 10.4713C7.65354 10.5963 7.82311 10.6666 7.99992 10.6666C8.17673 10.6666 8.3463 10.5963 8.47132 10.4713C8.59635 10.3463 8.66659 10.1767 8.66659 9.99989V9.50456C8.65822 9.27256 8.71112 9.04246 8.81996 8.83742C8.92881 8.63237 9.08975 8.45962 9.28659 8.33656C9.76959 8.07127 10.1586 7.66286 10.4 7.16749C10.6414 6.67212 10.7234 6.11413 10.6348 5.57024C10.5461 5.02635 10.2911 4.52328 9.90492 4.13022C9.51869 3.73715 9.02017 3.4734 8.47792 3.37522V3.37522Z" fill="#CE4242"/>
<path d="M8.66659 11.9999C8.66659 11.6317 8.36811 11.3333 7.99992 11.3333C7.63173 11.3333 7.33325 11.6317 7.33325 11.9999C7.33325 12.3681 7.63173 12.6666 7.99992 12.6666C8.36811 12.6666 8.66659 12.3681 8.66659 11.9999Z" fill="#CE4242"/>
</g>
<defs>
<clipPath id="clip0_220_412">
<rect width="16" height="16" fill="white"/>
</clipPath>
</defs>
</svg>
