<svg width="19" height="19" viewBox="0 0 19 19" fill="none" xmlns="http://www.w3.org/2000/svg">
<g clip-path="url(#clip0_205_2020)">
<path d="M17.75 9.50005C17.5666 9.4979 17.3891 9.56419 17.2521 9.68597C17.1151 9.80775 17.0284 9.97626 17.009 10.1586C16.8855 11.5866 16.3548 12.9492 15.4799 14.0846C14.605 15.22 13.4227 16.0805 12.0733 16.564C10.7239 17.0474 9.26413 17.1335 7.86729 16.8119C6.47044 16.4904 5.19519 15.7748 4.19296 14.7501H6.25171C6.45062 14.7501 6.64139 14.671 6.78204 14.5304C6.92269 14.3897 7.00171 14.199 7.00171 14.0001C7.00171 13.8011 6.92269 13.6104 6.78204 13.4697C6.64139 13.3291 6.45062 13.2501 6.25171 13.2501H3.25171C2.85388 13.2501 2.47235 13.4081 2.19105 13.6894C1.90974 13.9707 1.75171 14.3522 1.75171 14.7501V17.7501C1.75171 17.949 1.83073 18.1397 1.97138 18.2804C2.11203 18.421 2.3028 18.5 2.50171 18.5C2.70062 18.5 2.89139 18.421 3.03204 18.2804C3.17269 18.1397 3.25171 17.949 3.25171 17.7501V15.9216C4.46464 17.1156 5.99184 17.9404 7.65544 18.3C9.31904 18.6596 11.0506 18.5392 12.6484 17.9528C14.2462 17.3663 15.6445 16.338 16.6805 14.9876C17.7164 13.6372 18.3474 12.0202 18.5 10.3251C18.5096 10.2206 18.4975 10.1153 18.4642 10.0158C18.431 9.91633 18.3773 9.82487 18.3068 9.74726C18.2362 9.66965 18.1503 9.60758 18.0544 9.56502C17.9585 9.52246 17.8548 9.50033 17.75 9.50005Z" fill="white"/>
<path d="M16.4983 0.500074C16.2994 0.500074 16.1086 0.579092 15.968 0.719744C15.8273 0.860397 15.7483 1.05116 15.7483 1.25007V3.07857C14.5354 1.88456 13.0082 1.05971 11.3446 0.700105C9.68097 0.340494 7.94944 0.460919 6.35164 1.04735C4.75384 1.63379 3.35552 2.6621 2.31955 4.01252C1.28358 5.36294 0.652582 6.9799 0.500054 8.67507C0.490367 8.77952 0.502541 8.88483 0.535801 8.98431C0.569062 9.08379 0.622679 9.17525 0.693237 9.25286C0.763794 9.33048 0.849745 9.39254 0.945613 9.43511C1.04148 9.47767 1.14516 9.49979 1.25005 9.50008C1.43337 9.50222 1.61089 9.43593 1.74793 9.31415C1.88496 9.19238 1.97165 9.02387 1.99105 8.84157C2.11455 7.41353 2.64524 6.05091 3.52012 4.9155C4.395 3.7801 5.57732 2.91959 6.92671 2.43616C8.2761 1.95272 9.73588 1.86666 11.1327 2.18819C12.5296 2.50972 13.8048 3.22533 14.8071 4.25007H12.7483C12.5494 4.25007 12.3586 4.32909 12.218 4.46974C12.0773 4.6104 11.9983 4.80116 11.9983 5.00007C11.9983 5.19899 12.0773 5.38975 12.218 5.5304C12.3586 5.67106 12.5494 5.75007 12.7483 5.75007H15.7483C16.1461 5.75007 16.5277 5.59204 16.809 5.31073C17.0903 5.02943 17.2483 4.6479 17.2483 4.25007V1.25007C17.2483 1.05116 17.1693 0.860397 17.0286 0.719744C16.888 0.579092 16.6972 0.500074 16.4983 0.500074Z" fill="white"/>
</g>
<defs>
<clipPath id="clip0_205_2020">
<rect width="18" height="18" fill="white" transform="translate(0.5 0.5)"/>
</clipPath>
</defs>
</svg>
