<svg width="21" height="21" viewBox="0 0 21 21" fill="none" xmlns="http://www.w3.org/2000/svg">
<path d="M18.526 14.3167H6.89517L7.47916 13.1272L17.1823 13.1096C17.5104 13.1096 17.7917 12.8752 17.8502 12.551L19.194 5.02954C19.2292 4.83228 19.1764 4.62915 19.0475 4.47485C18.9838 4.39892 18.9043 4.33775 18.8146 4.29559C18.7249 4.25343 18.6271 4.23129 18.528 4.23071L6.18423 4.1897L6.07877 3.6936C6.01236 3.3772 5.7272 3.14673 5.40298 3.14673H2.38541C2.20255 3.14673 2.02719 3.21937 1.89789 3.34866C1.76859 3.47796 1.69595 3.65333 1.69595 3.83618C1.69595 4.01904 1.76859 4.1944 1.89789 4.3237C2.02719 4.453 2.20255 4.52563 2.38541 4.52563H4.84439L5.30533 6.71704L6.44009 12.2112L4.97916 14.5959C4.90329 14.6983 4.85759 14.8199 4.84724 14.947C4.83688 15.074 4.86228 15.2014 4.92056 15.3147C5.03775 15.5471 5.27408 15.6936 5.5358 15.6936H6.76236C6.50087 16.0409 6.35963 16.4639 6.36002 16.8987C6.36002 18.0041 7.25845 18.9026 8.36392 18.9026C9.46939 18.9026 10.3678 18.0041 10.3678 16.8987C10.3678 16.4631 10.2233 16.0393 9.96548 15.6936H13.112C12.8505 16.0409 12.7092 16.4639 12.7096 16.8987C12.7096 18.0041 13.6081 18.9026 14.7135 18.9026C15.819 18.9026 16.7174 18.0041 16.7174 16.8987C16.7174 16.4631 16.5729 16.0393 16.3151 15.6936H18.528C18.9069 15.6936 19.2174 15.385 19.2174 15.0042C19.2163 14.8215 19.143 14.6467 19.0134 14.5179C18.8839 14.3891 18.7087 14.3168 18.526 14.3167ZM6.47134 5.54907L17.7174 5.58618L16.6159 11.7542L7.78189 11.7698L6.47134 5.54907ZM8.36392 17.5159C8.02408 17.5159 7.74673 17.2385 7.74673 16.8987C7.74673 16.5588 8.02408 16.2815 8.36392 16.2815C8.70376 16.2815 8.98111 16.5588 8.98111 16.8987C8.98111 17.0624 8.91608 17.2194 8.80034 17.3351C8.68459 17.4508 8.52761 17.5159 8.36392 17.5159ZM14.7135 17.5159C14.3737 17.5159 14.0963 17.2385 14.0963 16.8987C14.0963 16.5588 14.3737 16.2815 14.7135 16.2815C15.0534 16.2815 15.3307 16.5588 15.3307 16.8987C15.3307 17.0624 15.2657 17.2194 15.1499 17.3351C15.0342 17.4508 14.8772 17.5159 14.7135 17.5159Z" fill="white"/>
</svg>
