<svg width="88" height="166" viewBox="0 0 88 166" fill="none" xmlns="http://www.w3.org/2000/svg">
<rect x="12.5" y="51.8749" width="62" height="62" rx="9.5" fill="#0F171E"/>
<rect x="12.5" y="51.8749" width="62" height="62" rx="9.5" stroke="white" stroke-opacity="0.5"/>
<rect x="12.5" y="51.8749" width="62" height="62" rx="9.5" stroke="url(#paint0_linear_89_500)"/>
<path d="M10.4187 0.270977C14.0871 1.22697 16.6452 4.54233 16.6395 8.33322C16.6252 12.1215 14.0577 15.4236 10.3895 16.3707V19.7186L21.9624 27.427C22.5437 27.8147 22.8916 28.4679 22.8895 29.1665V35.4165H18.7228V30.2811L7.1499 22.5728C6.56865 22.185 6.22074 21.5319 6.22282 20.8332V16.3707C1.77698 15.2121 -0.887865 10.6686 0.27099 6.2228C1.42984 1.77697 5.97282 -0.887616 10.4187 0.270977ZM4.13948 8.33322C4.13948 10.6345 6.00485 12.4999 8.30615 12.4999C10.6075 12.4999 12.4728 10.6345 12.4728 8.33322C12.4728 6.03192 10.6075 4.16655 8.30615 4.16655C6.00485 4.16655 4.13948 6.03192 4.13948 8.33322Z" fill="url(#paint1_linear_89_500)"/>
<path d="M81.252 0.270906C84.9205 1.2269 87.4786 4.54226 87.4729 8.33315C87.4585 12.1214 84.8911 15.4235 81.2229 16.3706V20.8331C81.2231 21.7303 80.6489 22.5266 79.7979 22.8102L68.7228 26.5019V31.2498H64.5562V24.9998C64.5559 24.1027 65.1301 23.3063 65.9812 23.0227L77.0562 19.3311V16.3706C72.6104 15.2121 69.9455 10.6686 71.1044 6.22299C72.263 1.77716 76.8062 -0.887687 81.252 0.270906ZM74.9728 8.33315C74.9728 10.6344 76.8382 12.4998 79.1395 12.4998C81.4408 12.4998 83.3062 10.6344 83.3062 8.33315C83.3062 6.03184 81.4408 4.16648 79.1395 4.16648C76.8382 4.16648 74.9728 6.03184 74.9728 8.33315Z" fill="url(#paint2_linear_89_500)"/>
<path d="M22.8895 39.5831V43.7498H18.7228V39.5831H22.8895Z" fill="url(#paint3_linear_89_500)"/>
<path d="M68.7228 35.4164V39.5831H64.5562V35.4164H68.7228Z" fill="url(#paint4_linear_89_500)"/>
<path d="M35.4186 0.270902C39.0871 1.22689 41.6452 4.54226 41.6395 8.33314C41.6251 12.1214 39.0577 15.4235 35.3895 16.3706V29.8394L43.7228 33.1727L52.0561 29.8394V24.704C47.5999 23.5535 44.9202 19.0081 46.0707 14.5519C47.2212 10.0956 51.7665 7.41596 56.2228 8.56648C60.6791 9.717 63.3587 14.2623 62.2082 18.7186C61.4504 21.654 59.1582 23.9462 56.2228 24.704V31.2498C56.2236 32.1019 55.7054 32.8683 54.9145 33.1852L45.8061 36.8269V43.7498H41.6395V36.8269L32.5311 33.1852C31.7402 32.8683 31.2223 32.1019 31.2228 31.2498V16.3706C26.777 15.2121 24.1121 10.6686 25.271 6.22273C26.4298 1.77689 30.9728 -0.887691 35.4186 0.270902ZM58.3061 16.6665C58.3061 14.3652 56.4408 12.4998 54.1395 12.4998C51.8382 12.4998 49.9728 14.3652 49.9728 16.6665C49.9728 18.9678 51.8382 20.8331 54.1395 20.8331C56.4408 20.8331 58.3061 18.9678 58.3061 16.6665ZM29.1395 8.33314C29.1395 10.6344 31.0048 12.4998 33.3061 12.4998C35.6074 12.4998 37.4728 10.6344 37.4728 8.33314C37.4728 6.03184 35.6074 4.16648 33.3061 4.16648C31.0048 4.16648 29.1395 6.03184 29.1395 8.33314Z" fill="url(#paint5_linear_89_500)"/>
<path fill-rule="evenodd" clip-rule="evenodd" d="M69 47.3749H18C12.4772 47.3749 8 51.852 8 57.3749V108.375C8 113.898 12.4772 118.375 18 118.375H69C74.5229 118.375 79 113.898 79 108.375V57.3749C79 51.852 74.5228 47.3749 69 47.3749ZM18 43.3749C10.268 43.3749 4 49.6429 4 57.3749V108.375C4 116.107 10.268 122.375 18 122.375H69C76.732 122.375 83 116.107 83 108.375V57.3749C83 49.6429 76.732 43.3749 69 43.3749H18Z" fill="url(#paint6_linear_89_500)"/>
<path d="M64.5563 136.5C64.5563 137.196 64.9039 137.847 65.4833 138.233L77.0562 145.948V149.296C72.6104 150.454 69.9456 154.998 71.1044 159.444C72.2633 163.89 76.8062 166.554 81.2521 165.396C84.9206 164.44 87.4786 161.124 87.4729 157.333C87.4586 153.545 84.8909 150.243 81.2229 149.296V144.833C81.2229 144.137 80.8753 143.486 80.2958 143.1L68.7229 135.385V130.25H64.5563V136.5ZM83.3062 157.333C83.3062 159.635 81.4409 161.5 79.1396 161.5C76.8383 161.5 74.9729 159.635 74.9729 157.333C74.9729 155.032 76.8383 153.167 79.1396 153.167C81.4409 153.167 83.3062 155.032 83.3062 157.333Z" fill="url(#paint7_linear_89_500)"/>
<path d="M18.7229 137.296L7.37502 142.958C6.66538 143.313 6.21851 144.04 6.22293 144.833V149.296C1.7771 150.454 -0.887742 154.998 0.271112 159.444C1.42997 163.89 5.97293 166.554 10.4188 165.396C14.0873 164.44 16.6453 161.124 16.6396 157.333C16.6253 153.545 14.0576 150.243 10.3896 149.296V146.121L21.7375 140.448C22.4438 140.095 22.8899 139.373 22.8896 138.583V132.333H18.7229V137.296ZM12.4729 157.333C12.4729 159.635 10.6076 161.5 8.30627 161.5C6.00496 161.5 4.1396 159.635 4.1396 157.333C4.1396 155.032 6.00496 153.167 8.30627 153.167C10.6076 153.167 12.4729 155.032 12.4729 157.333Z" fill="url(#paint8_linear_89_500)"/>
<path d="M64.5563 121.917V126.083H68.7229V121.917H64.5563Z" fill="url(#paint9_linear_89_500)"/>
<path d="M18.7229 124V128.167H22.8896V124H18.7229Z" fill="url(#paint10_linear_89_500)"/>
<path d="M41.6396 128.84L32.5313 132.481C31.7404 132.798 31.2224 133.565 31.2229 134.417V140.962C26.7667 142.113 24.087 146.658 25.2375 151.115C26.388 155.571 30.9334 158.25 35.3896 157.1C39.8459 155.949 42.5255 151.404 41.375 146.948C40.6172 144.012 38.325 141.72 35.3896 140.962V135.827L43.7229 132.494L52.0563 135.827V149.296C47.6104 150.454 44.9456 154.998 46.1045 159.444C47.2633 163.89 51.8063 166.554 56.2521 165.396C59.9206 164.44 62.4787 161.124 62.4729 157.333C62.4586 153.545 59.8909 150.243 56.2229 149.296V134.417C56.2237 133.565 55.7055 132.798 54.9146 132.481L45.8063 128.84V121.917H41.6396V128.84ZM37.4729 149C37.4729 151.301 35.6076 153.167 33.3063 153.167C31.005 153.167 29.1396 151.301 29.1396 149C29.1396 146.699 31.005 144.833 33.3063 144.833C35.6076 144.833 37.4729 146.699 37.4729 149ZM58.3063 157.333C58.3063 159.635 56.4409 161.5 54.1396 161.5C51.8383 161.5 49.9729 159.635 49.9729 157.333C49.9729 155.032 51.8383 153.167 54.1396 153.167C56.4409 153.167 58.3063 155.032 58.3063 157.333Z" fill="url(#paint11_linear_89_500)"/>
<g clip-path="url(#clip0_89_500)">
<path d="M51.0833 77.3333H36.9166V75.9167C36.9162 74.3462 37.4377 72.82 38.3992 71.5782C39.3606 70.3364 40.7075 69.4494 42.2281 69.0566C43.7487 68.6637 45.3568 68.7874 46.7994 69.4081C48.2421 70.0288 49.4375 71.1113 50.1978 72.4855C50.2882 72.6482 50.4096 72.7915 50.5553 72.9073C50.7011 73.023 50.8681 73.1089 51.047 73.1601C51.2259 73.2113 51.4132 73.2267 51.5981 73.2055C51.7829 73.1843 51.9618 73.1269 52.1245 73.0366C52.2872 72.9463 52.4305 72.8248 52.5462 72.6791C52.662 72.5334 52.7479 72.3663 52.7991 72.1874C52.8502 72.0085 52.8657 71.8213 52.8445 71.6364C52.8233 71.4515 52.7659 71.2726 52.6756 71.1099C51.6107 69.1865 49.9368 67.6716 47.9171 66.8031C45.8973 65.9347 43.6463 65.7621 41.5177 66.3124C39.3892 66.8627 37.5039 68.1047 36.1581 69.8432C34.8124 71.5817 34.0825 73.7182 34.0833 75.9167V77.934C32.8215 78.4847 31.7476 79.3911 30.9928 80.5424C30.238 81.6937 29.8351 83.04 29.8333 84.4167V92.9167C29.8355 94.7946 30.5825 96.595 31.9104 97.9229C33.2383 99.2508 35.0387 99.9978 36.9166 100H51.0833C52.9612 99.9978 54.7615 99.2508 56.0894 97.9229C57.4173 96.595 58.1643 94.7946 58.1666 92.9167V84.4167C58.1643 82.5388 57.4173 80.7384 56.0894 79.4105C54.7615 78.0826 52.9612 77.3356 51.0833 77.3333ZM55.3333 92.9167C55.3333 94.0438 54.8855 95.1249 54.0885 95.9219C53.2914 96.7189 52.2104 97.1667 51.0833 97.1667H36.9166C35.7894 97.1667 34.7084 96.7189 33.9114 95.9219C33.1144 95.1249 32.6666 94.0438 32.6666 92.9167V84.4167C32.6666 83.2895 33.1144 82.2085 33.9114 81.4115C34.7084 80.6144 35.7894 80.1667 36.9166 80.1667H51.0833C52.2104 80.1667 53.2914 80.6144 54.0885 81.4115C54.8855 82.2085 55.3333 83.2895 55.3333 84.4167V92.9167Z" fill="white"/>
<path d="M43.9999 85.8334C43.6242 85.8334 43.2639 85.9826 42.9982 86.2483C42.7325 86.514 42.5833 86.8743 42.5833 87.25V90.0834C42.5833 90.4591 42.7325 90.8194 42.9982 91.0851C43.2639 91.3508 43.6242 91.5 43.9999 91.5C44.3756 91.5 44.736 91.3508 45.0017 91.0851C45.2673 90.8194 45.4166 90.4591 45.4166 90.0834V87.25C45.4166 86.8743 45.2673 86.514 45.0017 86.2483C44.736 85.9826 44.3756 85.8334 43.9999 85.8334Z" fill="white"/>
</g>
<defs>
<linearGradient id="paint0_linear_89_500" x1="5.59544" y1="114.375" x2="79.5747" y2="114.375" gradientUnits="userSpaceOnUse">
<stop stop-color="#CE4242"/>
<stop offset="1" stop-color="#527FE1"/>
</linearGradient>
<linearGradient id="paint1_linear_89_500" x1="109.5" y1="-2.12512" x2="19.5" y2="177.375" gradientUnits="userSpaceOnUse">
<stop stop-color="#7D6CB4"/>
<stop offset="1" stop-color="#E0414C"/>
</linearGradient>
<linearGradient id="paint2_linear_89_500" x1="109.5" y1="-2.12512" x2="19.5" y2="177.375" gradientUnits="userSpaceOnUse">
<stop stop-color="#7D6CB4"/>
<stop offset="1" stop-color="#E0414C"/>
</linearGradient>
<linearGradient id="paint3_linear_89_500" x1="109.5" y1="-2.12512" x2="19.5" y2="177.375" gradientUnits="userSpaceOnUse">
<stop stop-color="#7D6CB4"/>
<stop offset="1" stop-color="#E0414C"/>
</linearGradient>
<linearGradient id="paint4_linear_89_500" x1="109.5" y1="-2.12512" x2="19.5" y2="177.375" gradientUnits="userSpaceOnUse">
<stop stop-color="#7D6CB4"/>
<stop offset="1" stop-color="#E0414C"/>
</linearGradient>
<linearGradient id="paint5_linear_89_500" x1="109.5" y1="-2.12512" x2="19.5" y2="177.375" gradientUnits="userSpaceOnUse">
<stop stop-color="#7D6CB4"/>
<stop offset="1" stop-color="#E0414C"/>
</linearGradient>
<linearGradient id="paint6_linear_89_500" x1="109.5" y1="-2.12512" x2="19.5" y2="177.375" gradientUnits="userSpaceOnUse">
<stop stop-color="#7D6CB4"/>
<stop offset="1" stop-color="#E0414C"/>
</linearGradient>
<linearGradient id="paint7_linear_89_500" x1="109.5" y1="-2.12512" x2="19.5" y2="177.375" gradientUnits="userSpaceOnUse">
<stop stop-color="#7D6CB4"/>
<stop offset="1" stop-color="#E0414C"/>
</linearGradient>
<linearGradient id="paint8_linear_89_500" x1="109.5" y1="-2.12512" x2="19.5" y2="177.375" gradientUnits="userSpaceOnUse">
<stop stop-color="#7D6CB4"/>
<stop offset="1" stop-color="#E0414C"/>
</linearGradient>
<linearGradient id="paint9_linear_89_500" x1="109.5" y1="-2.12512" x2="19.5" y2="177.375" gradientUnits="userSpaceOnUse">
<stop stop-color="#7D6CB4"/>
<stop offset="1" stop-color="#E0414C"/>
</linearGradient>
<linearGradient id="paint10_linear_89_500" x1="109.5" y1="-2.12512" x2="19.5" y2="177.375" gradientUnits="userSpaceOnUse">
<stop stop-color="#7D6CB4"/>
<stop offset="1" stop-color="#E0414C"/>
</linearGradient>
<linearGradient id="paint11_linear_89_500" x1="109.5" y1="-2.12512" x2="19.5" y2="177.375" gradientUnits="userSpaceOnUse">
<stop stop-color="#7D6CB4"/>
<stop offset="1" stop-color="#E0414C"/>
</linearGradient>
<clipPath id="clip0_89_500">
<rect width="34" height="34" fill="white" transform="translate(27 66)"/>
</clipPath>
</defs>
</svg>
