<svg width="16" height="11" viewBox="0 0 16 11" fill="none" xmlns="http://www.w3.org/2000/svg">
<path fill-rule="evenodd" clip-rule="evenodd" d="M8.00008 0.333496C4.66675 0.333496 1.82008 2.40683 0.666748 5.3335C1.82008 8.26016 4.66675 10.3335 8.00008 10.3335C11.3334 10.3335 14.1801 8.26016 15.3334 5.3335C14.1801 2.40683 11.3334 0.333496 8.00008 0.333496ZM8.00008 8.66683C6.16008 8.66683 4.66675 7.1735 4.66675 5.3335C4.66675 3.4935 6.16008 2.00016 8.00008 2.00016C9.84008 2.00016 11.3334 3.4935 11.3334 5.3335C11.3334 7.1735 9.84008 8.66683 8.00008 8.66683ZM8.00008 3.3335C6.89341 3.3335 6.00008 4.22683 6.00008 5.3335C6.00008 6.44016 6.89341 7.3335 8.00008 7.3335C9.10675 7.3335 10.0001 6.44016 10.0001 5.3335C10.0001 4.22683 9.10675 3.3335 8.00008 3.3335Z" fill="white" fill-opacity="0.35"/>
</svg>
